<?xml version="1.0" encoding="utf-8"?>
<!-- Generator: Adobe Illustrator 26.0.1, SVG Export Plug-In . SVG Version: 6.00 Build 0)  -->
<svg version="1.1" id="Layer_1" xmlns="http://www.w3.org/2000/svg" xmlns:xlink="http://www.w3.org/1999/xlink" x="0px" y="0px"
	 viewBox="0 0 60 60" style="enable-background:new 0 0 60 60;" xml:space="preserve">
<style type="text/css">
	.st0{fill:#0D6EFD;}
	.st1{clip-path:url(#SVGID_00000028289443935802960890000012486071714371785405_);fill:#F5FBFF;}
	.st2{clip-path:url(#SVGID_00000028289443935802960890000012486071714371785405_);fill:none;stroke:#E4E5E7;stroke-miterlimit:10;}
	.st3{clip-path:url(#SVGID_00000177470145093967284870000008646033901196175517_);}
	.st4{clip-path:url(#SVGID_00000181067936021896142590000008522167576170218656_);}
	.st5{clip-path:url(#SVGID_00000080198450826833480680000000245634213083058325_);fill:#1A5C96;}
	.st6{clip-path:url(#SVGID_00000129204190714786828300000004050135422650437018_);}
	.st7{fill:#F5FBFF;}
	.st8{fill:none;}
	.st9{fill:#F77B0B;}
	.st10{fill:#FFFFFF;}
	.st11{clip-path:url(#SVGID_00000148629198261443184770000011307887772344189319_);fill:#FFFFFF;}
	.st12{opacity:0.7;clip-path:url(#SVGID_00000148629198261443184770000011307887772344189319_);}
	.st13{clip-path:url(#SVGID_00000044880089046087277750000006880262996198597008_);fill:#FFFFFF;}
	.st14{clip-path:url(#SVGID_00000107574027910114772350000014925702358823764406_);fill:#FFFFFF;}
	.st15{clip-path:url(#SVGID_00000076581386406756668100000012392587975388471998_);fill:#FFFFFF;}
	.st16{clip-path:url(#SVGID_00000098182748528715614560000013990336795585366446_);fill:#FFFFFF;}
	.st17{opacity:0.2;clip-path:url(#SVGID_00000148629198261443184770000011307887772344189319_);}
	.st18{clip-path:url(#SVGID_00000101785548419938895950000006101850088387886735_);}
	.st19{clip-path:url(#SVGID_00000148629198261443184770000011307887772344189319_);fill:#F77B0B;}
	.st20{clip-path:url(#SVGID_00000161629474701399232140000004810858263382441618_);fill:none;stroke:#FFFFFF;stroke-miterlimit:10;}
	.st21{opacity:0.2;clip-path:url(#SVGID_00000139259309984699186600000010315544411903685248_);}
	.st22{clip-path:url(#SVGID_00000158742702702010364540000011206996452158745273_);}
	
		.st23{clip-path:url(#SVGID_00000107571068298364867510000010173290971744559507_);fill:none;stroke:#999999;stroke-width:0.25;stroke-miterlimit:10;}
	.st24{clip-path:url(#SVGID_00000107571068298364867510000010173290971744559507_);fill:#FFFFFF;}
	.st25{clip-path:url(#SVGID_00000134928682153597476540000009251158969222282119_);fill:#FFFFFF;}
	
		.st26{clip-path:url(#SVGID_00000050661074348828356360000000798786310181357489_);fill:none;stroke:#666666;stroke-width:0.5;stroke-miterlimit:10;}
	
		.st27{clip-path:url(#SVGID_00000088093546177111035400000015142341578056745870_);fill:none;stroke:#666666;stroke-width:0.5;stroke-miterlimit:10;}
	
		.st28{clip-path:url(#SVGID_00000101092794172052326560000013266129688935923335_);fill:none;stroke:#666666;stroke-width:0.5;stroke-miterlimit:10;}
	
		.st29{clip-path:url(#SVGID_00000094607703601840561260000017287305098020022175_);fill:none;stroke:#666666;stroke-width:0.5;stroke-miterlimit:10;}
	
		.st30{clip-path:url(#SVGID_00000027572777823840501610000016003182272369984420_);fill:none;stroke:#666666;stroke-width:0.5;stroke-miterlimit:10;}
	
		.st31{clip-path:url(#SVGID_00000021107804112063197640000014783105981782483365_);fill:none;stroke:#666666;stroke-width:0.5;stroke-miterlimit:10;}
	.st32{clip-path:url(#SVGID_00000021107804112063197640000014783105981782483365_);fill:#FFFFFF;}
	.st33{clip-path:url(#SVGID_00000021107804112063197640000014783105981782483365_);fill:#F77B0B;}
	.st34{filter:url(#Adobe_OpacityMaskFilter);}
	.st35{enable-background:new    ;}
	.st36{clip-path:url(#SVGID_00000021107804112063197640000014783105981782483365_);}
	
		.st37{opacity:0.3;clip-path:url(#SVGID_00000021107804112063197640000014783105981782483365_);mask:url(#SVGID_00000106110132487427337750000014995523233995089855_);}
	.st38{clip-path:url(#SVGID_00000024717744484218284940000004744305367498781067_);}
	.st39{clip-path:url(#SVGID_00000181064297700479594620000004754544888016829827_);}
	.st40{opacity:0.3;clip-path:url(#SVGID_00000026124924833587333790000006398036191488049579_);}
	.st41{clip-path:url(#SVGID_00000147943072345673492880000009887312012082016168_);fill:#FFFFFF;}
	.st42{clip-path:url(#SVGID_00000026124924833587333790000006398036191488049579_);fill:#FFFFFF;}
	.st43{clip-path:url(#SVGID_00000183927869009606122110000006079414537831424146_);fill:#FFFFFF;}
	.st44{clip-path:url(#SVGID_00000109725457067105115960000015177210716167530392_);}
	.st45{opacity:0.2;clip-path:url(#SVGID_00000067933671158241984050000009905050748033714594_);}
	.st46{clip-path:url(#SVGID_00000116212416146107939300000000354301827565151406_);}
	.st47{clip-path:url(#SVGID_00000067933671158241984050000009905050748033714594_);fill:#F77B0B;}
	.st48{opacity:0.2;clip-path:url(#SVGID_00000120523917034357173160000006467369952138039481_);}
	.st49{clip-path:url(#SVGID_00000119801870737920235040000004088301776194300304_);}
	.st50{clip-path:url(#SVGID_00000120523917034357173160000006467369952138039481_);fill:#F77B0B;}
	.st51{clip-path:url(#SVGID_00000118368306745798291350000011945344681853319077_);fill:#FFFFFF;}
	.st52{opacity:0.2;clip-path:url(#SVGID_00000106846992777884958150000015578840792328582784_);}
	.st53{clip-path:url(#SVGID_00000089569282951752688580000016193077519186961581_);}
	.st54{clip-path:url(#SVGID_00000106846992777884958150000015578840792328582784_);fill:#F77B0B;}
	.st55{clip-path:url(#SVGID_00000150813543594645054980000013191563404353647537_);fill:#FFFFFF;}
	.st56{clip-path:url(#SVGID_00000166654288634128744200000016699168505400284293_);}
	.st57{clip-path:url(#SVGID_00000181765313531088970400000017472881225483031486_);}
	
		.st58{clip-path:url(#SVGID_00000031195362164367417100000014244290986939435690_);fill:none;stroke:#999999;stroke-width:0.25;stroke-miterlimit:10;}
	.st59{clip-path:url(#SVGID_00000036961615350736481250000000658797535019832975_);}
	.st60{clip-path:url(#SVGID_00000127755577441027491360000000648223775141311382_);}
	.st61{clip-path:url(#SVGID_00000081617454752140179330000003020649532393483953_);}
	
		.st62{clip-path:url(#SVGID_00000161623801507450482210000010708981753195905694_);fill:none;stroke:#999999;stroke-width:0.25;stroke-miterlimit:10;}
	.st63{clip-path:url(#SVGID_00000142897197437762372000000010582701770705211275_);}
	.st64{clip-path:url(#SVGID_00000080183765468888387010000006895715699126321031_);}
	
		.st65{clip-path:url(#SVGID_00000008839987402298903780000002331736342434581417_);fill:none;stroke:#999999;stroke-width:0.25;stroke-miterlimit:10;}
	.st66{clip-path:url(#SVGID_00000145058218902548089590000002241636901315674511_);}
	.st67{clip-path:url(#SVGID_00000078728839938859120510000000066766637902964634_);}
	.st68{clip-path:url(#SVGID_00000121250416972862494170000004948673547207400071_);}
	
		.st69{clip-path:url(#SVGID_00000121256055321274906530000013829407219489719704_);fill:none;stroke:#999999;stroke-width:0.25;stroke-miterlimit:10;}
	.st70{clip-path:url(#SVGID_00000025411633638059121310000010567609447226050491_);}
	.st71{clip-path:url(#SVGID_00000144327336057022675390000015740583909672310428_);}
	.st72{clip-path:url(#SVGID_00000074401411260227899530000003089540927613424002_);}
	
		.st73{clip-path:url(#SVGID_00000086685001177877526790000000886542843837169283_);fill:none;stroke:#999999;stroke-width:0.25;stroke-miterlimit:10;}
	.st74{clip-path:url(#SVGID_00000083088184805674379160000003928185573281132214_);}
	.st75{clip-path:url(#SVGID_00000010268998901126853160000010967681835092954292_);}
	.st76{opacity:0.1;clip-path:url(#SVGID_00000101103490051538387520000008567865110084358312_);}
	.st77{clip-path:url(#SVGID_00000039829039279238686690000010130471665072669626_);}
	.st78{clip-path:url(#SVGID_00000101103490051538387520000008567865110084358312_);fill:#FFFFFF;}
	.st79{clip-path:url(#SVGID_00000101103490051538387520000008567865110084358312_);}
	.st80{clip-path:url(#SVGID_00000128453765554605927310000001729407954693151372_);}
	.st81{clip-path:url(#SVGID_00000021807383390377567580000015035181643096859022_);}
	
		.st82{clip-path:url(#SVGID_00000132787879114134379540000014049087622107488656_);fill:none;stroke:#999999;stroke-width:0.25;stroke-miterlimit:10;}
	.st83{clip-path:url(#SVGID_00000155839603407993594560000018185614614932710069_);}
	.st84{clip-path:url(#SVGID_00000034069810390363571080000002844044527716518290_);}
	.st85{clip-path:url(#SVGID_00000014611757726218053990000004900613369487604157_);}
	.st86{fill:none;stroke:#999999;stroke-width:0.25;stroke-miterlimit:10;}
	.st87{clip-path:url(#SVGID_00000109748998582316357080000004526678313386044813_);}
	.st88{clip-path:url(#SVGID_00000140736058935875148020000008791421987690272148_);}
	
		.st89{clip-path:url(#SVGID_00000141428418949385526230000009451932437233572758_);fill:none;stroke:#999999;stroke-width:0.25;stroke-miterlimit:10;}
	.st90{clip-path:url(#SVGID_00000078750381192132814510000006950064368449017257_);}
	.st91{clip-path:url(#SVGID_00000067929389562892601580000005735842335936407701_);}
	.st92{clip-path:url(#SVGID_00000160192476892090991800000015916319197861854338_);}
	
		.st93{clip-path:url(#SVGID_00000063635754780041564210000005776515684123108480_);fill:none;stroke:#999999;stroke-width:0.25;stroke-miterlimit:10;}
	.st94{clip-path:url(#SVGID_00000004542616792533743530000016800266400498502031_);}
	.st95{clip-path:url(#SVGID_00000125568091620876722890000006483483761658337165_);}
	.st96{clip-path:url(#SVGID_00000100372265158843268250000007999202643259226524_);}
	.st97{clip-path:url(#SVGID_00000020374659903391574610000007665404754592098704_);}
	.st98{clip-path:url(#SVGID_00000032613680618067647400000008684023206062601112_);}
	.st99{opacity:0.1;clip-path:url(#SVGID_00000073718628077118355080000006091645568250941094_);}
	.st100{clip-path:url(#SVGID_00000134223117846627533610000012617537044625970866_);}
	.st101{clip-path:url(#SVGID_00000073718628077118355080000006091645568250941094_);fill:#FFFFFF;}
	.st102{clip-path:url(#SVGID_00000073718628077118355080000006091645568250941094_);}
	.st103{clip-path:url(#SVGID_00000026165667916161260570000016532931848109042586_);}
	.st104{clip-path:url(#SVGID_00000047047857432663996360000004312147701945212808_);}
	
		.st105{clip-path:url(#SVGID_00000114048652717966279870000010303913672313873302_);fill:none;stroke:#999999;stroke-width:0.25;stroke-miterlimit:10;}
	.st106{clip-path:url(#SVGID_00000119805239894600147580000005683186361303520938_);}
	.st107{clip-path:url(#SVGID_00000158741166713312603030000008280070378218398377_);}
	.st108{clip-path:url(#SVGID_00000158025300501185777910000013043969929934058885_);}
	
		.st109{clip-path:url(#SVGID_00000003095479277493927400000010147283165386403744_);fill:none;stroke:#999999;stroke-width:0.25;stroke-miterlimit:10;}
	.st110{clip-path:url(#SVGID_00000093894772578328036080000006629432145576554934_);}
	.st111{clip-path:url(#SVGID_00000057147217449438083980000013576476084768519615_);}
	
		.st112{clip-path:url(#SVGID_00000058575508480719976600000011889492512820923047_);fill:none;stroke:#999999;stroke-width:0.25;stroke-miterlimit:10;}
	.st113{clip-path:url(#SVGID_00000119091275820433962190000009489205844030648963_);}
	.st114{clip-path:url(#SVGID_00000074409829933308795380000010453940378024295567_);}
	
		.st115{clip-path:url(#SVGID_00000054971925187628847250000010467240712755660977_);fill:none;stroke:#999999;stroke-width:0.25;stroke-miterlimit:10;}
	.st116{clip-path:url(#SVGID_00000145747557689804822040000006025912681200760713_);}
	.st117{clip-path:url(#SVGID_00000020375634259691079120000017590962473031553187_);}
	.st118{clip-path:url(#SVGID_00000070114760520616549300000012141131302785050296_);}
	
		.st119{clip-path:url(#SVGID_00000145759827154214075840000005176900583005487762_);fill:none;stroke:#999999;stroke-width:0.25;stroke-miterlimit:10;}
	.st120{clip-path:url(#SVGID_00000089557782756449217250000017231209664910212750_);}
	.st121{clip-path:url(#SVGID_00000031892017758277569060000003717034986824245394_);}
	.st122{clip-path:url(#SVGID_00000028301504630958835380000011825246101089143173_);}
	
		.st123{clip-path:url(#SVGID_00000111875662761318943830000016186838113817634218_);fill:none;stroke:#999999;stroke-width:0.25;stroke-miterlimit:10;}
	.st124{clip-path:url(#SVGID_00000103956140410564939910000007750906152358378648_);}
	.st125{clip-path:url(#SVGID_00000031890842330304993690000009834699963270479031_);}
	
		.st126{clip-path:url(#SVGID_00000108297756186653216780000003199601787080636039_);fill:none;stroke:#999999;stroke-width:0.25;stroke-miterlimit:10;}
	.st127{clip-path:url(#SVGID_00000088107571407341039790000011134354406406704002_);}
	
		.st128{clip-path:url(#SVGID_00000158015968892808197170000011247755170572126876_);fill:none;stroke:#999999;stroke-width:0.25;stroke-miterlimit:10;}
	.st129{clip-path:url(#SVGID_00000093873668249537414430000006233344144479563670_);}
	.st130{clip-path:url(#SVGID_00000094614954272181276510000016527841819686511244_);}
	
		.st131{clip-path:url(#SVGID_00000047744664104356410930000004560132822557957783_);fill:none;stroke:#999999;stroke-width:0.25;stroke-miterlimit:10;}
	.st132{clip-path:url(#SVGID_00000134931769772437613550000000082941436240287157_);}
	.st133{clip-path:url(#SVGID_00000084490105999237332750000013891908240677537924_);}
	.st134{clip-path:url(#SVGID_00000049215873212293042220000002525235524805934772_);}
	
		.st135{clip-path:url(#SVGID_00000007424398939784309840000009335822196251495096_);fill:none;stroke:#999999;stroke-width:0.25;stroke-miterlimit:10;}
	.st136{clip-path:url(#SVGID_00000057852956989221455370000011249675585172986815_);}
	.st137{clip-path:url(#SVGID_00000129195664516626164390000003055093893910736017_);}
	
		.st138{clip-path:url(#SVGID_00000173130916726056391300000000252709001803086251_);fill:none;stroke:#999999;stroke-width:0.25;stroke-miterlimit:10;}
	.st139{clip-path:url(#SVGID_00000042728608836104435930000014909016329789622705_);}
	.st140{clip-path:url(#SVGID_00000089566730308818139420000011524994757285482147_);}
	.st141{clip-path:url(#SVGID_00000132789833014518555940000000488381770301869751_);}
	
		.st142{clip-path:url(#SVGID_00000005249829493401349710000012991209991498471818_);fill:none;stroke:#999999;stroke-width:0.25;stroke-miterlimit:10;}
	.st143{clip-path:url(#SVGID_00000000219275185586570640000008140904445796988561_);}
	.st144{clip-path:url(#SVGID_00000054249445763643304070000013371450084717870260_);}
	
		.st145{clip-path:url(#SVGID_00000134955832099120956700000010850577879822873528_);fill:none;stroke:#999999;stroke-width:0.25;stroke-miterlimit:10;}
	.st146{clip-path:url(#SVGID_00000037670957377511361260000015959116865696669629_);}
	.st147{clip-path:url(#SVGID_00000065048524759922564700000008511779323806123649_);}
	
		.st148{clip-path:url(#SVGID_00000004522223321900021790000013109718294801352368_);fill:none;stroke:#999999;stroke-width:0.25;stroke-miterlimit:10;}
	.st149{clip-path:url(#SVGID_00000056418166125265045470000013292399188331027345_);}
	.st150{clip-path:url(#SVGID_00000172427412776947009200000005088765545083544981_);}
	.st151{clip-path:url(#SVGID_00000153694507394961991290000008715241844678665364_);}
	
		.st152{clip-path:url(#SVGID_00000031892308963542437190000002741494137834122653_);fill:none;stroke:#999999;stroke-width:0.25;stroke-miterlimit:10;}
	.st153{clip-path:url(#SVGID_00000071537002691107171650000014764391127023928722_);}
	.st154{clip-path:url(#SVGID_00000146493275652653129630000018225359801906411935_);}
	.st155{clip-path:url(#SVGID_00000077288367185142422910000015178270012195371963_);}
	.st156{clip-path:url(#SVGID_00000149373164647835158570000006592480944451144326_);}
	.st157{clip-path:url(#SVGID_00000054966290251378867250000007546415901683623830_);}
	
		.st158{clip-path:url(#SVGID_00000005968377165661223430000010078049486920091278_);fill:none;stroke:#000000;stroke-miterlimit:10;}
	.st159{clip-path:url(#SVGID_00000143583842348447619270000013948730836754066058_);fill:#0D6EFD;}
	.st160{clip-path:url(#SVGID_00000058550442983985615340000010057103560169289131_);}
	.st161{clip-path:url(#SVGID_00000159431596063594095960000001141847034069253537_);}
	.st162{clip-path:url(#SVGID_00000035511377921535080520000012916584637686202009_);}
	.st163{fill:#666666;}
	
		.st164{clip-path:url(#SVGID_00000034065586347520333190000012118694479107202443_);fill:none;stroke:#999999;stroke-width:0.25;stroke-miterlimit:10;}
	.st165{clip-path:url(#SVGID_00000135671643296937874670000013332122573945365160_);}
	.st166{clip-path:url(#SVGID_00000055701379054369683510000000062771406136506303_);}
	.st167{clip-path:url(#SVGID_00000032636215480559002220000015979281914579328415_);}
	.st168{clip-path:url(#SVGID_00000098184383368428677030000014944554515747978146_);fill:#FCFCFC;}
	.st169{clip-path:url(#SVGID_00000011719625064696364720000009216927012517398451_);}
	.st170{clip-path:url(#SVGID_00000141431780798731279300000007870097380390667690_);fill:#F5FBFF;}
	.st171{clip-path:url(#SVGID_00000120541269203894910770000010408970724389096580_);fill:#F77B0B;}
	.st172{clip-path:url(#SVGID_00000120541269203894910770000010408970724389096580_);fill:#FFFFFF;}
	
		.st173{clip-path:url(#SVGID_00000121268654566733298730000003512437100971928718_);fill:none;stroke:#999999;stroke-width:0.25;stroke-miterlimit:10;}
	.st174{clip-path:url(#SVGID_00000124125838750655545720000009531642893096963986_);}
	.st175{fill:none;stroke:#000000;stroke-miterlimit:10;}
	.st176{clip-path:url(#SVGID_00000047052533110837842010000007379608816356029324_);}
	.st177{opacity:0.2;clip-path:url(#SVGID_00000158719197606985774940000014136258632291898280_);}
	.st178{clip-path:url(#SVGID_00000139270695355367902700000009359570064002472837_);}
	.st179{clip-path:url(#SVGID_00000158719197606985774940000014136258632291898280_);fill:#FFFFFF;}
	.st180{clip-path:url(#SVGID_00000062909416832926207680000013212741881243894462_);}
	.st181{clip-path:url(#SVGID_00000060713268957289084570000002212748915891031977_);}
	
		.st182{clip-path:url(#SVGID_00000107549120586724388310000012759246358148564388_);fill:none;stroke:#999999;stroke-width:0.25;stroke-miterlimit:10;}
	
		.st183{clip-path:url(#SVGID_00000020366463281717771220000007345403251145319313_);fill:none;stroke:#999999;stroke-width:0.25;stroke-miterlimit:10;}
	
		.st184{clip-path:url(#SVGID_00000123401099538333577590000009886008916983248059_);fill:none;stroke:#2490D0;stroke-width:0.586;stroke-miterlimit:10;}
	
		.st185{clip-path:url(#SVGID_00000123401099538333577590000009886008916983248059_);fill:none;stroke:#999999;stroke-width:0.25;stroke-miterlimit:10;}
	.st186{clip-path:url(#SVGID_00000067228755275200702020000001787888583985836955_);}
	.st187{clip-path:url(#SVGID_00000155841249428574045570000009671960369844777877_);}
	.st188{clip-path:url(#SVGID_00000077290203590377098130000004557210245021949876_);}
	.st189{clip-path:url(#SVGID_00000083083793432727297500000010401432423840369065_);}
	.st190{clip-path:url(#SVGID_00000023262051146692786140000017531115204292077753_);}
	
		.st191{clip-path:url(#SVGID_00000022543666728080028770000005838837295945524614_);fill:none;stroke:#999999;stroke-width:0.25;stroke-miterlimit:10;}
	.st192{clip-path:url(#SVGID_00000096767966873883392750000010258189774573642671_);}
	.st193{clip-path:url(#SVGID_00000119097486864949813490000013397201231391178144_);}
	.st194{clip-path:url(#SVGID_00000023966505005873173400000001233099865379380901_);fill:#0D6EFD;}
	.st195{clip-path:url(#SVGID_00000149346927793338017610000005096158579241680776_);}
	.st196{clip-path:url(#SVGID_00000103975636243669200900000008378985765887678849_);}
	.st197{clip-path:url(#SVGID_00000165933140634575894190000016483911628444721850_);}
	.st198{clip-path:url(#SVGID_00000059290743622410618750000011682859617503694215_);}
	.st199{clip-path:url(#SVGID_00000098205790203321741730000006376439419354593422_);}
	.st200{clip-path:url(#SVGID_00000047774441889108791830000012434272197743792044_);}
	.st201{clip-path:url(#SVGID_00000008869486913606728730000008532733072283912123_);fill:#F5FBFF;}
	.st202{clip-path:url(#SVGID_00000054232722805675451340000014484395748950798980_);fill:#F77B0B;}
	.st203{clip-path:url(#SVGID_00000054232722805675451340000014484395748950798980_);fill:#FFFFFF;}
	
		.st204{clip-path:url(#SVGID_00000178203816051849543640000011415828161431588759_);fill:none;stroke:#999999;stroke-width:0.25;stroke-miterlimit:10;}
	.st205{clip-path:url(#SVGID_00000144305540897565562400000018271380460901535623_);}
	.st206{clip-path:url(#SVGID_00000179625006741518571330000004929448754733941383_);fill:#0D6EFD;}
	.st207{clip-path:url(#SVGID_00000086676985096712108890000009840052102597438854_);}
	.st208{clip-path:url(#SVGID_00000183931777289358461510000000929852519106675884_);}
	.st209{clip-path:url(#SVGID_00000147900753985186779080000014581208403339216561_);}
	
		.st210{clip-path:url(#SVGID_00000072990023518495257040000013340943154734529926_);fill:none;stroke:#999999;stroke-width:0.25;stroke-miterlimit:10;}
	.st211{clip-path:url(#SVGID_00000070080311608907291940000008000636744850770871_);}
	.st212{clip-path:url(#SVGID_00000133524197042791648100000008381927047856450200_);}
	
		.st213{clip-path:url(#SVGID_00000140711501976828829920000002644136709457857722_);fill:none;stroke:#999999;stroke-width:0.25;stroke-miterlimit:10;}
	
		.st214{clip-path:url(#SVGID_00000036240188840158506490000006469371889930194083_);fill:none;stroke:#999999;stroke-width:0.25;stroke-miterlimit:10;}
	.st215{clip-path:url(#SVGID_00000036240188840158506490000006469371889930194083_);fill:#1A5C96;}
	.st216{clip-path:url(#SVGID_00000036240188840158506490000006469371889930194083_);fill:#FFFFFF;}
	.st217{clip-path:url(#SVGID_00000012440218646054430040000014164300921097416108_);fill:#FFFFFF;}
	
		.st218{clip-path:url(#SVGID_00000078731298454008368670000004992024183750744741_);fill:none;stroke:#666666;stroke-width:0.5;stroke-miterlimit:10;}
	
		.st219{clip-path:url(#SVGID_00000055705967742612115810000012096747317016712334_);fill:none;stroke:#666666;stroke-width:0.5;stroke-miterlimit:10;}
	
		.st220{clip-path:url(#SVGID_00000002377210047690531140000014002694290196264088_);fill:none;stroke:#666666;stroke-width:0.5;stroke-miterlimit:10;}
	
		.st221{clip-path:url(#SVGID_00000133521050931356221590000015146487969892235136_);fill:none;stroke:#666666;stroke-width:0.5;stroke-miterlimit:10;}
	
		.st222{clip-path:url(#SVGID_00000176029142279968620980000003075390716857635767_);fill:none;stroke:#666666;stroke-width:0.5;stroke-miterlimit:10;}
	
		.st223{clip-path:url(#SVGID_00000067214495262109357390000005573083719864126603_);fill:none;stroke:#666666;stroke-width:0.5;stroke-miterlimit:10;}
	.st224{clip-path:url(#SVGID_00000089558893563699849070000004759684329538152636_);}
	.st225{clip-path:url(#SVGID_00000128456451638908992920000014742961938595646339_);}
	.st226{opacity:0.2;clip-path:url(#SVGID_00000034769699263829570950000002993099830699449510_);}
	.st227{clip-path:url(#SVGID_00000052063467009380877520000006759826195299259028_);}
	.st228{clip-path:url(#SVGID_00000034769699263829570950000002993099830699449510_);fill:#FFFFFF;}
	.st229{clip-path:url(#SVGID_00000036252745806012489440000007534769822117009802_);}
	.st230{clip-path:url(#SVGID_00000034769699263829570950000002993099830699449510_);}
	.st231{clip-path:url(#SVGID_00000119824055600895674780000011751911270148904876_);}
	
		.st232{clip-path:url(#SVGID_00000084524043949620529260000015334048253683779481_);fill:none;stroke:#999999;stroke-width:0.25;stroke-miterlimit:10;}
	.st233{clip-path:url(#SVGID_00000065037739105053909250000000501076008977755025_);}
	.st234{clip-path:url(#SVGID_00000021835881740032000780000012804445677137485503_);}
	.st235{clip-path:url(#SVGID_00000029011204350950344720000004441637169040690311_);}
	
		.st236{clip-path:url(#SVGID_00000010991758847741363030000007756397402352971929_);fill:none;stroke:#999999;stroke-width:0.25;stroke-miterlimit:10;}
	.st237{clip-path:url(#SVGID_00000103253740605901508610000006850449063316882861_);}
	.st238{clip-path:url(#SVGID_00000176029910049209867570000015563103876567024295_);}
	
		.st239{clip-path:url(#SVGID_00000157995641121157121210000003456691572851872688_);fill:none;stroke:#999999;stroke-width:0.25;stroke-miterlimit:10;}
	.st240{clip-path:url(#SVGID_00000139992714333803172660000015226487963737881022_);}
	.st241{clip-path:url(#SVGID_00000052074109189082603220000016724908336773852073_);}
	.st242{clip-path:url(#SVGID_00000000937989105039869050000012539779619702353048_);}
	
		.st243{clip-path:url(#SVGID_00000081623944254207717130000005986587225679442336_);fill:none;stroke:#999999;stroke-width:0.25;stroke-miterlimit:10;}
	.st244{clip-path:url(#SVGID_00000109014586669689544460000010197543428747723706_);}
	.st245{clip-path:url(#SVGID_00000164491877184620446680000012994347687571731365_);}
	
		.st246{clip-path:url(#SVGID_00000106858216490185422550000014279777571949424538_);fill:none;stroke:#999999;stroke-width:0.25;stroke-miterlimit:10;}
	.st247{clip-path:url(#SVGID_00000026855397095540964730000015785636688360561844_);}
	.st248{clip-path:url(#SVGID_00000139289063353394746420000013555202434065639354_);}
	
		.st249{clip-path:url(#SVGID_00000020392580685160327010000016768969685272167841_);fill:none;stroke:#999999;stroke-width:0.25;stroke-miterlimit:10;}
	.st250{clip-path:url(#SVGID_00000079475204091509761350000017210105765766059944_);}
	
		.st251{clip-path:url(#SVGID_00000175300795792426369470000004541159250353024133_);fill:none;stroke:#999999;stroke-width:0.25;stroke-miterlimit:10;}
	.st252{clip-path:url(#SVGID_00000179621790778090904840000017680523620195390874_);}
	.st253{clip-path:url(#SVGID_00000052820000288430037590000012793557546660467363_);}
	.st254{clip-path:url(#SVGID_00000013182581287430653310000011487001983680594347_);}
	
		.st255{clip-path:url(#SVGID_00000125560580436465117420000016323775986929905824_);fill:none;stroke:#999999;stroke-width:0.25;stroke-miterlimit:10;}
	.st256{clip-path:url(#SVGID_00000078005431746512514130000011513774125543467916_);}
	.st257{clip-path:url(#SVGID_00000178192293299314773440000010680451423143581848_);}
	
		.st258{clip-path:url(#SVGID_00000070814220052986292650000006295633169827416988_);fill:none;stroke:#999999;stroke-width:0.25;stroke-miterlimit:10;}
	.st259{clip-path:url(#SVGID_00000119804487560944922960000011983330306645220765_);}
	.st260{clip-path:url(#SVGID_00000107558581142119501110000017196525232378675627_);}
	.st261{clip-path:url(#SVGID_00000072970542814883074690000003171439725764355468_);}
	
		.st262{clip-path:url(#SVGID_00000158714066100292794970000002201146158135924100_);fill:none;stroke:#999999;stroke-width:0.25;stroke-miterlimit:10;}
	.st263{clip-path:url(#SVGID_00000036247018580773757890000005346450585544902541_);}
	.st264{clip-path:url(#SVGID_00000121975671224906493520000004015611077482417593_);}
	
		.st265{clip-path:url(#SVGID_00000036235596982023071540000011860501964214662534_);fill:none;stroke:#999999;stroke-width:0.25;stroke-miterlimit:10;}
	.st266{clip-path:url(#SVGID_00000002374685181261046950000013039031566178496134_);}
	.st267{clip-path:url(#SVGID_00000136402966049919494550000002764219112429810873_);}
	.st268{clip-path:url(#SVGID_00000179623892347019881380000001514199683465193868_);}
	
		.st269{clip-path:url(#SVGID_00000106838402776939666220000000147904484354680704_);fill:none;stroke:#999999;stroke-width:0.25;stroke-miterlimit:10;}
	.st270{clip-path:url(#SVGID_00000044153753120033045700000001643113861917149087_);}
	.st271{clip-path:url(#SVGID_00000002363415883173249590000009353268932632564121_);fill:#F77B0B;}
	.st272{clip-path:url(#SVGID_00000166641991510951051370000001978765203011684239_);}
	
		.st273{clip-path:url(#SVGID_00000183232227019174937140000016780677643452153254_);fill:none;stroke:#999999;stroke-width:0.25;stroke-miterlimit:10;}
	.st274{clip-path:url(#SVGID_00000108299193854527396480000008223268845952680848_);}
	.st275{clip-path:url(#SVGID_00000003817448066031515750000008323422881126050186_);}
	.st276{clip-path:url(#SVGID_00000170992261283738928320000008188498669118120348_);}
	
		.st277{clip-path:url(#SVGID_00000142897471283861106020000003552253001593137827_);fill:none;stroke:#999999;stroke-width:0.25;stroke-miterlimit:10;}
	.st278{clip-path:url(#SVGID_00000025428992236315897090000002484360964993569721_);}
	.st279{clip-path:url(#SVGID_00000134958867984738839570000005734304563382602112_);}
	
		.st280{clip-path:url(#SVGID_00000005978479949410363750000003739497523634358458_);fill:none;stroke:#999999;stroke-width:0.25;stroke-miterlimit:10;}
	.st281{clip-path:url(#SVGID_00000021095756059939864590000010707302249841771661_);}
	.st282{clip-path:url(#SVGID_00000113338813399614324480000011030105844773732260_);}
	.st283{clip-path:url(#SVGID_00000026844745184592956880000016870314122171006345_);}
	
		.st284{clip-path:url(#SVGID_00000018944229131321710820000001743505878089855919_);fill:none;stroke:#999999;stroke-width:0.25;stroke-miterlimit:10;}
	.st285{clip-path:url(#SVGID_00000121265973319274911570000004902996792869100982_);}
	.st286{clip-path:url(#SVGID_00000124139383892536691430000005974877054290664577_);fill:#F77B0B;}
	.st287{clip-path:url(#SVGID_00000182493664005296089450000011083449347545128352_);fill:#F77B0B;}
	.st288{clip-path:url(#SVGID_00000062900945033978506290000015003554082361167027_);fill:#F77B0B;}
	.st289{fill:#F4F4F4;stroke:#999999;stroke-width:0.25;stroke-miterlimit:10;}
	.st290{fill:#1A5C96;}
	.st291{clip-path:url(#SVGID_00000121960783301940257190000016630688109528873378_);}
	.st292{clip-path:url(#SVGID_00000035517286175141732050000001934165904405513901_);fill:#F5FBFF;}
	.st293{clip-path:url(#SVGID_00000132060672525975101620000002081787887989323936_);fill:#F77B0B;}
	.st294{clip-path:url(#SVGID_00000132060672525975101620000002081787887989323936_);fill:#FFFFFF;}
	
		.st295{clip-path:url(#SVGID_00000183951516912496708390000014403920425205084570_);fill:none;stroke:#999999;stroke-width:0.25;stroke-miterlimit:10;}
	.st296{clip-path:url(#SVGID_00000031181047052530232540000016394180628164124344_);}
	.st297{clip-path:url(#SVGID_00000115485869052687143750000009859372155280530580_);fill:#0D6EFD;}
	.st298{clip-path:url(#SVGID_00000150786080022707275410000013110204083254899084_);}
	.st299{clip-path:url(#SVGID_00000038403590631591992350000004799521318781819041_);}
	.st300{clip-path:url(#SVGID_00000089558718523159623260000000630762491943616185_);}
	
		.st301{clip-path:url(#SVGID_00000042000435109956311700000007979941522321474177_);fill:none;stroke:#999999;stroke-width:0.25;stroke-miterlimit:10;}
	.st302{clip-path:url(#SVGID_00000016796867088400423510000017123222370634463365_);}
	.st303{clip-path:url(#SVGID_00000026870483292941645980000018177949563204635540_);}
	
		.st304{clip-path:url(#SVGID_00000114754361924964939270000001026471802591582626_);fill:none;stroke:#999999;stroke-width:0.25;stroke-miterlimit:10;}
	.st305{clip-path:url(#SVGID_00000160180078806133262900000011219213939654131875_);fill:#FFFFFF;}
	
		.st306{clip-path:url(#SVGID_00000160893868726642542390000012077762348669857175_);fill:none;stroke:#666666;stroke-width:0.5;stroke-miterlimit:10;}
	
		.st307{clip-path:url(#SVGID_00000168112804731262652330000010835524871712811142_);fill:none;stroke:#666666;stroke-width:0.5;stroke-miterlimit:10;}
	
		.st308{clip-path:url(#SVGID_00000124140904412213921440000017394012952864112573_);fill:none;stroke:#666666;stroke-width:0.5;stroke-miterlimit:10;}
	
		.st309{clip-path:url(#SVGID_00000172415590806936869240000004006443545731470219_);fill:none;stroke:#666666;stroke-width:0.5;stroke-miterlimit:10;}
	
		.st310{clip-path:url(#SVGID_00000179632908297792948400000010068208762644142979_);fill:none;stroke:#666666;stroke-width:0.5;stroke-miterlimit:10;}
	
		.st311{clip-path:url(#SVGID_00000062178366132737743130000005345096069108018056_);fill:none;stroke:#666666;stroke-width:0.5;stroke-miterlimit:10;}
	.st312{clip-path:url(#SVGID_00000126284292858677788820000001103728209493252527_);}
	.st313{opacity:0.2;clip-path:url(#SVGID_00000152959278007896899650000007945616704233927101_);}
	.st314{clip-path:url(#SVGID_00000023246619117150695840000015215409327063908028_);}
	.st315{clip-path:url(#SVGID_00000152959278007896899650000007945616704233927101_);fill:#FFFFFF;}
	.st316{clip-path:url(#SVGID_00000113319160639841285100000018024556879423564682_);}
	.st317{clip-path:url(#SVGID_00000152959278007896899650000007945616704233927101_);}
	.st318{clip-path:url(#SVGID_00000098185177612532712860000013617461185541172657_);}
	
		.st319{clip-path:url(#SVGID_00000053514360728045857100000002272791300119520169_);fill:none;stroke:#999999;stroke-width:0.25;stroke-miterlimit:10;}
	.st320{clip-path:url(#SVGID_00000142166512050925303650000010291657712234860977_);}
	.st321{clip-path:url(#SVGID_00000111895507926520695330000010870439538911332533_);}
	.st322{clip-path:url(#SVGID_00000001632494694644349700000006129507742934328731_);}
	
		.st323{clip-path:url(#SVGID_00000000215073986834123820000003706852337351145636_);fill:none;stroke:#999999;stroke-width:0.25;stroke-miterlimit:10;}
	.st324{clip-path:url(#SVGID_00000119113193136796538460000002700033484668614807_);}
	.st325{clip-path:url(#SVGID_00000029006197527955776280000004485652100562753666_);}
	
		.st326{clip-path:url(#SVGID_00000130627269697896754110000008461365975719554981_);fill:none;stroke:#999999;stroke-width:0.25;stroke-miterlimit:10;}
	.st327{clip-path:url(#SVGID_00000050651325494689487130000008382479170245825723_);}
	.st328{clip-path:url(#SVGID_00000084495973031956424700000004630209920793819536_);}
	.st329{clip-path:url(#SVGID_00000103238511903238857630000014540078425751893639_);}
	
		.st330{clip-path:url(#SVGID_00000027564566259214731740000006751265038853339796_);fill:none;stroke:#999999;stroke-width:0.25;stroke-miterlimit:10;}
	.st331{clip-path:url(#SVGID_00000101094003249175106080000000933192953466694837_);}
	.st332{clip-path:url(#SVGID_00000142136277964924202640000006871056389748131261_);}
	
		.st333{clip-path:url(#SVGID_00000078040302741702223270000016910023367649342859_);fill:none;stroke:#999999;stroke-width:0.25;stroke-miterlimit:10;}
	.st334{clip-path:url(#SVGID_00000013160501236520283450000000609593347526173324_);}
	.st335{clip-path:url(#SVGID_00000098196056675205475630000010444903814515622040_);}
	
		.st336{clip-path:url(#SVGID_00000137827234111195736660000000784743669525078454_);fill:none;stroke:#999999;stroke-width:0.25;stroke-miterlimit:10;}
	.st337{clip-path:url(#SVGID_00000029007161735674022460000011928649296940032655_);}
	
		.st338{clip-path:url(#SVGID_00000072255332624896127190000008703847588830017709_);fill:none;stroke:#999999;stroke-width:0.25;stroke-miterlimit:10;}
	.st339{clip-path:url(#SVGID_00000091012939092643844920000005516187662229531530_);}
	.st340{clip-path:url(#SVGID_00000072993906145444921310000009587123725922873276_);}
	.st341{clip-path:url(#SVGID_00000145744156160943061830000009050085756654588571_);}
	
		.st342{clip-path:url(#SVGID_00000170987223911958514010000014238732058134720166_);fill:none;stroke:#999999;stroke-width:0.25;stroke-miterlimit:10;}
	.st343{clip-path:url(#SVGID_00000049215528043702324650000017504445595203673789_);}
	.st344{clip-path:url(#SVGID_00000090990772426169882740000012511953281054145668_);}
	
		.st345{clip-path:url(#SVGID_00000099634374809506611010000011071420856122055356_);fill:none;stroke:#999999;stroke-width:0.25;stroke-miterlimit:10;}
	.st346{clip-path:url(#SVGID_00000082330104759863198420000009669001448068407218_);}
	.st347{clip-path:url(#SVGID_00000047045903479672895860000011035495754901220226_);}
	.st348{clip-path:url(#SVGID_00000152242920548400700740000017711293584969618827_);}
	
		.st349{clip-path:url(#SVGID_00000098208744572066676120000006405373786229749925_);fill:none;stroke:#999999;stroke-width:0.25;stroke-miterlimit:10;}
	.st350{clip-path:url(#SVGID_00000048481177510134880500000015433816283418803874_);}
	.st351{clip-path:url(#SVGID_00000092432536866613554250000011294817254726339209_);}
	
		.st352{clip-path:url(#SVGID_00000182491363718545028140000012094892865363958678_);fill:none;stroke:#999999;stroke-width:0.25;stroke-miterlimit:10;}
	.st353{clip-path:url(#SVGID_00000011750214077331945490000015716599654438770574_);}
	.st354{clip-path:url(#SVGID_00000071533005317361146300000017537732500350637190_);}
	.st355{clip-path:url(#SVGID_00000176014012975655578010000012595428611699461035_);}
	
		.st356{clip-path:url(#SVGID_00000142178468001695344510000016338315538590094215_);fill:none;stroke:#999999;stroke-width:0.25;stroke-miterlimit:10;}
	.st357{clip-path:url(#SVGID_00000176760946433824457150000006524941315872397473_);}
	.st358{clip-path:url(#SVGID_00000136405017188764608630000015086376387703688862_);fill:#F77B0B;}
	.st359{clip-path:url(#SVGID_00000072247455676305330580000002330735479176384940_);}
	
		.st360{clip-path:url(#SVGID_00000119833901640931979360000007360912019108489606_);fill:none;stroke:#999999;stroke-width:0.25;stroke-miterlimit:10;}
	.st361{clip-path:url(#SVGID_00000076605912403746125060000016330068047244096698_);}
	.st362{clip-path:url(#SVGID_00000091701379221683388010000006838204564720642210_);}
	.st363{clip-path:url(#SVGID_00000112606697770768538430000003287804179799305390_);}
	
		.st364{clip-path:url(#SVGID_00000113349173181572775790000002559143127887212428_);fill:none;stroke:#999999;stroke-width:0.25;stroke-miterlimit:10;}
	.st365{clip-path:url(#SVGID_00000106139718478938344410000002067154532883457471_);}
	.st366{clip-path:url(#SVGID_00000131330204240289988950000008951167350059520664_);}
	
		.st367{clip-path:url(#SVGID_00000067207710895371330040000010302278700197695388_);fill:none;stroke:#999999;stroke-width:0.25;stroke-miterlimit:10;}
	.st368{clip-path:url(#SVGID_00000083064932205142173460000012413535992267271552_);}
	.st369{clip-path:url(#SVGID_00000157286999497352421930000004943963481038820786_);}
	.st370{clip-path:url(#SVGID_00000029005252393659395180000014408443541258694580_);}
	
		.st371{clip-path:url(#SVGID_00000094588948538678621810000010784026922832324782_);fill:none;stroke:#999999;stroke-width:0.25;stroke-miterlimit:10;}
	.st372{clip-path:url(#SVGID_00000106137555869990071100000014516949963671389825_);}
	.st373{clip-path:url(#SVGID_00000134230952295049320540000011454147810920223630_);fill:#F77B0B;}
	.st374{clip-path:url(#SVGID_00000036209606068233554180000011268630439324647568_);fill:#F77B0B;}
	.st375{clip-path:url(#SVGID_00000163033349029991300590000004061056627874318002_);fill:#F77B0B;}
	.st376{fill:#003F27;}
	.st377{clip-path:url(#SVGID_00000128463100757947577070000005875361716967889037_);}
	.st378{clip-path:url(#SVGID_00000101102922904774865660000013622431633149876614_);}
	.st379{clip-path:url(#SVGID_00000060022599090751656270000010011735959634479253_);}
	.st380{fill:none;stroke:#999999;stroke-width:0.5;stroke-miterlimit:10;}
	.st381{clip-path:url(#SVGID_00000098207159430839693380000017921920022127734207_);}
</style>
<g>
	<path d="M0,18.97c0.37-0.91,1.07-1.36,2.01-1.58c1.46-0.34,2.9-0.77,4.35-1.15c1.44-0.38,2.43,0.33,2.57,1.79
		c0.2,2.19,0.41,4.39,0.62,6.58c0.12,1.3-0.4,2.09-1.65,2.44c-0.69,0.2-1.39,0.38-2.09,0.56c-1.37,0.36-2.17-0.01-2.78-1.32
		C2.2,24.54,1.39,22.76,0.58,21c-0.19-0.4-0.38-0.8-0.58-1.21C0,19.52,0,19.24,0,18.97z M7.15,17.85c-1.85,0.5-3.61,0.97-5.41,1.46
		c1,2.17,1.97,4.26,2.92,6.35c0.14,0.3,0.3,0.39,0.64,0.29c0.67-0.21,1.35-0.38,2.03-0.53c0.41-0.09,0.52-0.3,0.47-0.71
		c-0.09-0.64-0.12-1.28-0.18-1.92C7.46,21.17,7.31,19.56,7.15,17.85z"/>
	<path d="M27.16,23.72c0.81,0.65,1.62,1.29,2.45,1.95c1.14-1.37,2.26-2.72,3.39-4.07c0.57-0.69,1.06-0.85,1.52-0.49
		c0.48,0.37,0.42,0.9-0.17,1.62c-1.12,1.35-2.25,2.7-3.31,3.98c0.73,0.72,1.44,1.43,2.2,2.2c0.82-0.68,1.77-1.46,2.71-2.24
		c2.98-2.47,5.95-4.94,8.93-7.42c0.54-0.45,0.55-0.52,0.07-1c-1.09-1.09-2.19-2.17-3.27-3.28c-0.36-0.38-0.6-0.37-0.93,0.04
		c-0.98,1.22-1.99,2.41-2.99,3.61c-0.15,0.18-0.29,0.37-0.46,0.53c-0.37,0.36-0.86,0.39-1.21,0.07c-0.37-0.34-0.45-0.77-0.14-1.16
		c1.27-1.56,2.54-3.12,3.88-4.62c0.71-0.79,1.97-0.77,2.76-0.02c1.34,1.28,2.66,2.59,3.94,3.93c0.85,0.89,0.7,2.21-0.3,3.05
		c-2.47,2.07-4.96,4.12-7.44,6.18c-1.49,1.23-2.97,2.47-4.5,3.74c0.72,0.91,1.42,1.79,2.01,2.53c1.75-0.51,3.39-1.1,5.08-1.44
		c3.42-0.69,6.8-0.24,10.13,0.73c0.67,0.2,1.36,0.39,1.98,0.69c1.79,0.87,2.76,2.78,2.38,4.59c-0.49,2.41-2.65,3.61-5.22,2.93
		c-1.85-0.49-3.68-1.06-5.56-1.37c-1.72-0.29-3.49-0.29-5.36-0.42c0.21,0.71,0.4,1.21,0.5,1.74c0.13,0.65,0.27,1.31,0.27,1.96
		c-0.01,1.88-0.91,3.21-2.68,3.86c-3.99,1.46-8,2.88-12,4.31c-5.73,2.04-11.46,4.1-17.21,6.1c-0.9,0.31-1.91,0.52-2.85,0.48
		C3.81,56.92,2.6,55.08,2.98,53c0.1-0.55,0.26-1.1,0.45-1.63c3.32-9.36,6.65-18.71,9.98-28.06c0.1-0.28,0.22-0.54,0.31-0.82
		c0.93-2.64,2.94-3.32,5.35-2.86c0.84,0.16,1.65,0.45,2.55,0.71c0.06-0.74,0.13-1.49,0.17-2.24c0.15-2.96-0.33-5.84-1.1-8.68
		c-0.31-1.14-0.4-2.27,0.11-3.38c1.22-2.63,4.91-2.96,6.8-0.62c0.8,0.98,1.02,2.17,1.29,3.35c0.94,4.12,0.99,8.21-0.53,12.22
		C28.02,21.89,27.58,22.77,27.16,23.72z M13.85,27.35c-0.47,1.3-0.89,2.43-1.26,3.58c-0.04,0.12,0.15,0.41,0.3,0.5
		c6.35,3.62,11.38,8.59,15.19,14.81c0.25,0.41,0.48,0.84,0.73,1.29c1.26-0.45,2.49-0.89,3.85-1.37c-0.56-1.15-0.98-2.3-1.65-3.29
		c-1.39-2.05-2.91-4.01-4.38-6c-0.36-0.48-0.38-0.97-0.01-1.31c0.39-0.36,0.9-0.34,1.29,0.11c2.19,2.51,4.21,5.14,5.62,8.18
		c0.26,0.56,0.48,1.14,0.73,1.76c0.97-0.36,1.93-0.7,2.87-1.07c1.28-0.51,1.75-1.33,1.61-2.71c-0.13-1.35-0.62-2.58-1.25-3.76
		c-2.1-3.94-4.9-7.33-8.21-10.31c-2.42-2.17-4.97-4.18-7.96-5.52c-1.02-0.45-2.13-0.75-3.23-0.95c-0.97-0.18-1.92,0.1-2.38,1.09
		c-0.5,1.09-0.89,2.23-1.33,3.37c0.6,0.25,1.13,0.44,1.64,0.67c2.98,1.36,5.57,3.3,8.03,5.42c0.3,0.26,0.61,0.5,0.87,0.78
		c0.34,0.37,0.35,0.79,0.01,1.16c-0.33,0.37-0.74,0.42-1.16,0.13c-0.24-0.17-0.45-0.37-0.67-0.57c-1.89-1.65-3.86-3.19-6.05-4.41
		C16.05,28.37,14.98,27.9,13.85,27.35z M27.15,48.11c-3.74-6.47-8.79-11.53-15.27-15.25c-0.74,2.09-1.45,4.09-2.16,6.09
		c4.51,3.09,8.27,6.85,11.33,11.33C23.08,49.56,25.08,48.85,27.15,48.11z M25.66,22.64c0.12-0.22,0.22-0.38,0.3-0.55
		c0.28-0.64,0.59-1.27,0.83-1.93c1.52-4.24,1.17-8.49-0.06-12.72c-0.21-0.74-0.71-1.3-1.43-1.62c-1.63-0.73-3.23,0.39-3.08,2.16
		c0.03,0.41,0.13,0.81,0.23,1.2c0.68,2.62,1.19,5.26,1.11,7.98c-0.04,1.19-0.16,2.37-0.22,3.56c-0.01,0.21,0.06,0.53,0.21,0.63
		C24.22,21.81,24.92,22.2,25.66,22.64z M37.47,34.49c0.43,0.73,0.86,1.39,1.21,2.08c0.19,0.38,0.42,0.47,0.82,0.44
		c2.59-0.2,5.15-0.02,7.67,0.59c1.4,0.34,2.78,0.77,4.17,1.13c1.18,0.3,2.15-0.11,2.6-1.02c0.48-0.98,0.22-2.17-0.68-2.9
		c-0.31-0.25-0.69-0.46-1.07-0.59c-3.22-1.06-6.5-1.63-9.9-1.16C40.64,33.27,39.04,33.74,37.47,34.49z M19.33,50.89
		c-2.84-4.04-6.2-7.41-10.17-10.18c-0.07,0.08-0.1,0.11-0.12,0.14c-0.3,0.82-0.6,1.65-0.88,2.48c-0.19,0.55-0.58,1.15-0.47,1.65
		c0.09,0.42,0.75,0.73,1.17,1.08c2.16,1.78,4.08,3.8,5.83,5.98c0.12,0.15,0.4,0.34,0.53,0.3C16.57,51.89,17.9,51.4,19.33,50.89z
		 M6.94,46.78C6.77,47.24,6.62,47.62,6.49,48c-0.58,1.69-1.23,3.37-1.73,5.09c-0.42,1.47,0.42,2.4,1.86,2.2
		c0.4-0.06,0.8-0.18,1.18-0.31c1.53-0.53,3.05-1.08,4.57-1.62c0.27-0.1,0.53-0.2,0.84-0.31C11.36,50.69,9.3,48.63,6.94,46.78z"/>
	<path d="M57.81,53.44c0,0.06,0.01,0.12,0.01,0.18c0.04,1.2-0.64,1.68-1.77,1.25c-0.78-0.3-1.54-0.67-2.33-0.94
		c-0.28-0.1-0.66-0.1-0.94,0c-0.81,0.28-1.59,0.65-2.39,0.96c-1.09,0.41-1.79-0.08-1.73-1.24c0.04-0.9,0.17-1.79,0.2-2.69
		c0.01-0.28-0.1-0.61-0.27-0.84c-0.53-0.7-1.12-1.35-1.67-2.04c-0.73-0.9-0.47-1.73,0.64-2.04c0.79-0.22,1.58-0.42,2.38-0.59
		c0.43-0.09,0.72-0.29,0.94-0.69c0.37-0.69,0.78-1.35,1.2-2.01c0.7-1.12,1.63-1.13,2.32-0.01c0.45,0.73,0.87,1.48,1.33,2.2
		c0.12,0.19,0.36,0.35,0.57,0.41c0.81,0.23,1.63,0.41,2.44,0.62c1.34,0.35,1.6,1.17,0.72,2.22c-0.5,0.6-0.98,1.22-1.51,1.79
		c-0.3,0.33-0.42,0.67-0.34,1.11c0.07,0.38,0.06,0.78,0.1,1.17c0.03,0.39,0.07,0.78,0.11,1.17C57.82,53.44,57.82,53.44,57.81,53.44z
		 M50.51,52.83c0.96-0.29,1.87-0.77,2.77-0.77c0.89,0,1.79,0.49,2.72,0.78c-0.05-0.64-0.09-1.24-0.15-1.84
		c-0.08-0.72,0.08-1.34,0.57-1.89c0.44-0.48,0.83-1,1.29-1.56c-0.74-0.19-1.38-0.38-2.02-0.5c-0.65-0.12-1.08-0.48-1.39-1.04
		c-0.31-0.57-0.67-1.12-1.05-1.76c-0.42,0.69-0.74,1.35-1.18,1.91c-0.28,0.36-0.7,0.67-1.12,0.83c-0.66,0.26-1.37,0.37-2.16,0.57
		c0.39,0.47,0.69,0.9,1.05,1.27c0.73,0.73,0.93,1.58,0.77,2.58C50.54,51.87,50.54,52.35,50.51,52.83z"/>
	<path d="M7.11,2.91c1.11,0.39,2.02-0.2,2.81-1.16c0.29-0.36,0.66-0.67,1.01-0.98c0.81-0.69,1.68-0.47,2.02,0.54
		c0.29,0.87,0.5,1.76,0.78,2.63c0.08,0.23,0.27,0.47,0.48,0.6c0.73,0.45,1.5,0.83,2.24,1.26c1.08,0.62,1.13,1.47,0.13,2.2
		C15.91,8.5,15.23,9,14.53,9.45c-0.34,0.22-0.5,0.5-0.56,0.89c-0.14,0.87-0.3,1.73-0.48,2.59c-0.22,1.06-1.03,1.38-1.92,0.76
		c-0.7-0.49-1.34-1.08-2.06-1.55c-0.29-0.19-0.71-0.29-1.06-0.27c-0.84,0.05-1.66,0.23-2.5,0.3c-1.14,0.09-1.64-0.58-1.28-1.66
		C4.94,9.7,5.22,8.89,5.53,8.09c0.16-0.4,0.13-0.73-0.06-1.11C5.1,6.23,4.75,5.47,4.42,4.7C3.95,3.64,4.42,2.92,5.58,2.91
		C6.03,2.9,6.48,2.91,7.11,2.91z M6.73,10.15c0.93,0,1.93-0.2,2.8,0.06c0.86,0.25,1.59,0.95,2.34,1.42c0.25-0.94,0.32-2,0.82-2.77
		c0.5-0.77,1.44-1.25,2.22-1.89c-0.57-0.31-1.1-0.64-1.66-0.91c-0.64-0.31-1.04-0.78-1.19-1.49c-0.14-0.62-0.35-1.22-0.53-1.83
		c-0.08-0.05-0.15-0.1-0.23-0.14c-0.42,0.49-0.83,0.98-1.25,1.47c-0.44,0.52-0.99,0.7-1.67,0.66c-0.65-0.04-1.3-0.01-1.95-0.01
		C6.78,5.65,7.36,6.52,7.4,7.42C7.44,8.34,6.96,9.29,6.73,10.15z"/>
	<path d="M56.89,3.89c-0.09,0.23-0.19,0.66-0.42,1.01c-0.89,1.35-1,2.72-0.19,4.14c0.12,0.22,0.18,0.47,0.25,0.72
		c0.28,0.96-0.27,1.63-1.28,1.53c-0.74-0.08-1.47-0.18-2.21-0.29c-0.45-0.07-0.82,0.02-1.18,0.33c-0.55,0.47-1.13,0.9-1.72,1.32
		c-0.92,0.64-1.72,0.31-1.94-0.8c-0.12-0.59-0.28-1.19-0.32-1.79C47.84,9.3,47.5,8.8,46.86,8.43c-0.49-0.28-0.93-0.64-1.39-0.97
		c-1.04-0.74-0.98-1.59,0.14-2.22c0.63-0.36,1.28-0.67,1.89-1.06c0.25-0.16,0.47-0.45,0.57-0.73c0.24-0.68,0.4-1.39,0.61-2.08
		c0.37-1.22,1.26-1.45,2.2-0.57c0.34,0.32,0.72,0.62,1.01,0.98c0.59,0.75,1.31,1,2.25,0.87c0.59-0.08,1.21-0.06,1.81-0.01
		C56.56,2.7,56.89,3.12,56.89,3.89z M47.06,6.46c1.92,0.81,2.67,2.27,2.66,4.18c0.81-0.51,1.47-1.12,2.24-1.34
		c0.78-0.22,1.67-0.05,2.6-0.05c-1.04-1.59-0.9-3.22,0.24-4.79c-1-0.06-1.93,0.08-2.68-0.22c-0.74-0.3-1.3-1.04-2.08-1.71
		C49.99,4.61,48.93,5.8,47.06,6.46z"/>
	<path d="M55.47,15.77c0.84,0,1.68-0.01,2.52,0c1.45,0.02,2.21,0.97,1.97,2.39c-0.37,2.14-0.73,4.27-1.09,6.41
		c-0.24,1.44-0.92,2.03-2.37,2.03c-0.76,0-1.52,0.01-2.29,0c-1.06-0.01-1.82-0.57-2.01-1.6c-0.45-2.42-0.87-4.84-1.26-7.27
		c-0.15-0.96,0.71-1.89,1.77-1.94c0.92-0.04,1.84-0.01,2.75-0.01C55.47,15.78,55.47,15.78,55.47,15.77z M52.69,17.57
		c0.4,2.35,0.78,4.61,1.17,6.88c0.05,0.3,0.21,0.42,0.52,0.41c0.72-0.02,1.44-0.02,2.17,0c0.36,0.01,0.52-0.12,0.58-0.48
		c0.22-1.39,0.46-2.77,0.7-4.15c0.15-0.87,0.3-1.75,0.45-2.66C56.39,17.57,54.58,17.57,52.69,17.57z"/>
	<path d="M37.8,48.72c0.52,0.24,1.01,0.38,1.41,0.66c1.71,1.17,3.39,2.38,5.07,3.58c0.93,0.67,1.09,1.86,0.3,2.7
		c-1.15,1.22-2.34,2.41-3.57,3.56c-0.84,0.79-2.04,0.61-2.7-0.32c-1.2-1.68-2.4-3.37-3.59-5.07c-0.77-1.09-0.68-1.93,0.25-2.87
		c0.52-0.53,1.02-1.08,1.59-1.56C36.9,49.13,37.35,48.97,37.8,48.72z M37.83,50.55c-0.56,0.58-1.06,1.13-1.59,1.64
		c-0.26,0.24-0.25,0.42-0.05,0.69c0.86,1.19,1.7,2.39,2.55,3.58c0.35,0.49,0.7,0.98,0.99,1.4c1.18-1.18,2.33-2.34,3.49-3.5
		C41.49,53.13,39.7,51.87,37.83,50.55z"/>
	<path d="M32.18,7.3c0.08-0.3,0.13-0.61,0.24-0.9c0.57-1.56,1.14-3.11,1.72-4.66c0.41-1.1,1.42-1.5,2.45-0.93
		c1.14,0.63,2.28,1.28,3.39,1.96c1.05,0.63,1.2,1.68,0.41,2.63c-1.05,1.28-2.11,2.56-3.18,3.83c-0.79,0.94-1.56,1.07-2.63,0.46
		c-0.52-0.3-1.05-0.6-1.57-0.91C32.49,8.44,32.22,7.95,32.18,7.3z M33.96,7.29c0.6,0.35,1.17,0.67,1.75,1
		c1.13-1.36,2.23-2.68,3.35-4.04c-1.1-0.63-2.15-1.25-3.27-1.89C35.17,4.03,34.58,5.64,33.96,7.29z"/>
</g>
</svg>
