<?xml version="1.0" encoding="utf-8"?>
<!-- Generator: Adobe Illustrator 26.0.1, SVG Export Plug-In . SVG Version: 6.00 Build 0)  -->
<svg version="1.1" id="Layer_1" xmlns="http://www.w3.org/2000/svg" xmlns:xlink="http://www.w3.org/1999/xlink" x="0px" y="0px"
	 viewBox="0 0 60 60" style="enable-background:new 0 0 60 60;" xml:space="preserve">
<style type="text/css">
	.st0{fill:#0D6EFD;}
	.st1{clip-path:url(#SVGID_00000036965929841932118330000009185237604805991857_);fill:#F5FBFF;}
	.st2{clip-path:url(#SVGID_00000036965929841932118330000009185237604805991857_);fill:none;stroke:#E4E5E7;stroke-miterlimit:10;}
	.st3{clip-path:url(#SVGID_00000098901206202716830210000012686593157572575135_);}
	.st4{clip-path:url(#SVGID_00000025407302780622403280000017381170993445018529_);}
	.st5{clip-path:url(#SVGID_00000052097360479593103670000006594396743186546351_);fill:#1A5C96;}
	.st6{clip-path:url(#SVGID_00000141451380306393859530000012013404993696158105_);}
	.st7{fill:#F5FBFF;}
	.st8{fill:none;}
	.st9{fill:#F77B0B;}
	.st10{fill:#FFFFFF;}
	.st11{clip-path:url(#SVGID_00000095315303344226076730000005993429364821157779_);fill:#FFFFFF;}
	.st12{opacity:0.7;clip-path:url(#SVGID_00000095315303344226076730000005993429364821157779_);}
	.st13{clip-path:url(#SVGID_00000062889221799243877520000013381911042591987359_);fill:#FFFFFF;}
	.st14{clip-path:url(#SVGID_00000095306522274339351520000008557252831503022245_);fill:#FFFFFF;}
	.st15{clip-path:url(#SVGID_00000158010756305083852340000011628560455564060841_);fill:#FFFFFF;}
	.st16{clip-path:url(#SVGID_00000025401762538704390790000017852940112764380821_);fill:#FFFFFF;}
	.st17{opacity:0.2;clip-path:url(#SVGID_00000095315303344226076730000005993429364821157779_);}
	.st18{clip-path:url(#SVGID_00000137851212080366539530000010412501017299537573_);}
	.st19{clip-path:url(#SVGID_00000095315303344226076730000005993429364821157779_);fill:#F77B0B;}
	.st20{clip-path:url(#SVGID_00000059269002488536126180000014746882018992351148_);fill:none;stroke:#FFFFFF;stroke-miterlimit:10;}
	.st21{opacity:0.2;clip-path:url(#SVGID_00000119839552723312348860000013246790134508782748_);}
	.st22{clip-path:url(#SVGID_00000036949052097607576650000016805689552037588129_);}
	
		.st23{clip-path:url(#SVGID_00000071523070426746407780000018320636979392647571_);fill:none;stroke:#999999;stroke-width:0.25;stroke-miterlimit:10;}
	.st24{clip-path:url(#SVGID_00000071523070426746407780000018320636979392647571_);fill:#FFFFFF;}
	.st25{clip-path:url(#SVGID_00000142882009399620566870000001582777065410921867_);fill:#FFFFFF;}
	
		.st26{clip-path:url(#SVGID_00000071526645540047908440000012023602548998226090_);fill:none;stroke:#666666;stroke-width:0.5;stroke-miterlimit:10;}
	
		.st27{clip-path:url(#SVGID_00000183948445994615867880000008125029771587931307_);fill:none;stroke:#666666;stroke-width:0.5;stroke-miterlimit:10;}
	
		.st28{clip-path:url(#SVGID_00000044152980208290385070000015509475734603025286_);fill:none;stroke:#666666;stroke-width:0.5;stroke-miterlimit:10;}
	
		.st29{clip-path:url(#SVGID_00000031203816882745954910000006274305404557741997_);fill:none;stroke:#666666;stroke-width:0.5;stroke-miterlimit:10;}
	
		.st30{clip-path:url(#SVGID_00000152952708020099834970000001081403461514079385_);fill:none;stroke:#666666;stroke-width:0.5;stroke-miterlimit:10;}
	
		.st31{clip-path:url(#SVGID_00000173145918855250766020000008699499409248514210_);fill:none;stroke:#666666;stroke-width:0.5;stroke-miterlimit:10;}
	.st32{clip-path:url(#SVGID_00000173145918855250766020000008699499409248514210_);fill:#FFFFFF;}
	.st33{clip-path:url(#SVGID_00000173145918855250766020000008699499409248514210_);fill:#F77B0B;}
	.st34{filter:url(#Adobe_OpacityMaskFilter);}
	.st35{enable-background:new    ;}
	.st36{clip-path:url(#SVGID_00000173145918855250766020000008699499409248514210_);}
	
		.st37{opacity:0.3;clip-path:url(#SVGID_00000173145918855250766020000008699499409248514210_);mask:url(#SVGID_00000159440003234716668970000006534965236779574918_);}
	.st38{clip-path:url(#SVGID_00000003071721120976319550000011239679504965446299_);}
	.st39{clip-path:url(#SVGID_00000037688243121059520270000016299840881266918325_);}
	.st40{opacity:0.3;clip-path:url(#SVGID_00000096049848148614739390000006000529084882362500_);}
	.st41{clip-path:url(#SVGID_00000078755527686323116550000009341716837369162411_);fill:#FFFFFF;}
	.st42{clip-path:url(#SVGID_00000096049848148614739390000006000529084882362500_);fill:#FFFFFF;}
	.st43{clip-path:url(#SVGID_00000019651495911267237780000002315035089838113441_);fill:#FFFFFF;}
	.st44{clip-path:url(#SVGID_00000088813833887146069910000004230015645321973170_);}
	.st45{opacity:0.2;clip-path:url(#SVGID_00000106835786800420941990000009329328956871373723_);}
	.st46{clip-path:url(#SVGID_00000093889215280255642150000001294229449815275660_);}
	.st47{clip-path:url(#SVGID_00000106835786800420941990000009329328956871373723_);fill:#F77B0B;}
	.st48{opacity:0.2;clip-path:url(#SVGID_00000020401125742001541360000003027839616943210421_);}
	.st49{clip-path:url(#SVGID_00000128460805750054838090000018307329896199692725_);}
	.st50{clip-path:url(#SVGID_00000020401125742001541360000003027839616943210421_);fill:#F77B0B;}
	.st51{clip-path:url(#SVGID_00000153666920452488540900000009437173951431017125_);fill:#FFFFFF;}
	.st52{opacity:0.2;clip-path:url(#SVGID_00000129914165248344847010000010207895582074682292_);}
	.st53{clip-path:url(#SVGID_00000118362323006944873470000004685601239555811229_);}
	.st54{clip-path:url(#SVGID_00000129914165248344847010000010207895582074682292_);fill:#F77B0B;}
	.st55{clip-path:url(#SVGID_00000060032039090462178550000011483362744439955882_);fill:#FFFFFF;}
	.st56{clip-path:url(#SVGID_00000084529890235943347030000006535295267788927406_);}
	.st57{clip-path:url(#SVGID_00000002344227508192696790000001894092580332461996_);}
	
		.st58{clip-path:url(#SVGID_00000058547276212616481730000007596840759187467702_);fill:none;stroke:#999999;stroke-width:0.25;stroke-miterlimit:10;}
	.st59{clip-path:url(#SVGID_00000049922996191683122110000015398219990907013806_);}
	.st60{clip-path:url(#SVGID_00000125574542144185774990000003303714033401764752_);}
	.st61{clip-path:url(#SVGID_00000034067135012058049330000007722621796630171059_);}
	
		.st62{clip-path:url(#SVGID_00000119106663640079236910000007120693348064160135_);fill:none;stroke:#999999;stroke-width:0.25;stroke-miterlimit:10;}
	.st63{clip-path:url(#SVGID_00000106832938918076245040000010253922732351086480_);}
	.st64{clip-path:url(#SVGID_00000138565111137858213090000005703905525104168608_);}
	
		.st65{clip-path:url(#SVGID_00000009569460905957935490000012680121444896230824_);fill:none;stroke:#999999;stroke-width:0.25;stroke-miterlimit:10;}
	.st66{clip-path:url(#SVGID_00000016072098295562564080000001429226764018846396_);}
	.st67{clip-path:url(#SVGID_00000133517673873899008120000013274315010015319226_);}
	.st68{clip-path:url(#SVGID_00000046333309033848820070000001366737429255979690_);}
	
		.st69{clip-path:url(#SVGID_00000078009962717521165660000006316272401883205530_);fill:none;stroke:#999999;stroke-width:0.25;stroke-miterlimit:10;}
	.st70{clip-path:url(#SVGID_00000148631084148967000130000008672692561146515373_);}
	.st71{clip-path:url(#SVGID_00000167377506249177440780000007982718543168630401_);}
	.st72{clip-path:url(#SVGID_00000007402652657657209610000001666432970607290760_);}
	
		.st73{clip-path:url(#SVGID_00000178902820973764070150000004758423876760861831_);fill:none;stroke:#999999;stroke-width:0.25;stroke-miterlimit:10;}
	.st74{clip-path:url(#SVGID_00000146473632003600692280000010800463507055929012_);}
	.st75{clip-path:url(#SVGID_00000155867371966166277720000010555280524278808741_);}
	.st76{opacity:0.1;clip-path:url(#SVGID_00000137116897422657059790000008788301886557055930_);}
	.st77{clip-path:url(#SVGID_00000050652462608773084910000006040945912548271286_);}
	.st78{clip-path:url(#SVGID_00000137116897422657059790000008788301886557055930_);fill:#FFFFFF;}
	.st79{clip-path:url(#SVGID_00000137116897422657059790000008788301886557055930_);}
	.st80{clip-path:url(#SVGID_00000146490943794019530740000003766966455604643486_);}
	.st81{clip-path:url(#SVGID_00000017487457792635497200000011940861023562308537_);}
	
		.st82{clip-path:url(#SVGID_00000170252103693417937960000001183117049911477903_);fill:none;stroke:#999999;stroke-width:0.25;stroke-miterlimit:10;}
	.st83{clip-path:url(#SVGID_00000112600626977996172600000008998551680428176791_);}
	.st84{clip-path:url(#SVGID_00000111181669457433180130000010221373873723495339_);}
	.st85{clip-path:url(#SVGID_00000079482983474954341350000006624920417990457276_);}
	.st86{fill:none;stroke:#999999;stroke-width:0.25;stroke-miterlimit:10;}
	.st87{clip-path:url(#SVGID_00000129899194056438986070000013093806603215892652_);}
	.st88{clip-path:url(#SVGID_00000143575262094278072570000011815744973082086314_);}
	
		.st89{clip-path:url(#SVGID_00000079481246530971123070000016653318254469746823_);fill:none;stroke:#999999;stroke-width:0.25;stroke-miterlimit:10;}
	.st90{clip-path:url(#SVGID_00000023274167139510090580000000200866059335059857_);}
	.st91{clip-path:url(#SVGID_00000075859321321476233200000006697052235299687860_);}
	.st92{clip-path:url(#SVGID_00000174602405008298472900000012024546883437435778_);}
	
		.st93{clip-path:url(#SVGID_00000026871863209233211670000009303864604297959813_);fill:none;stroke:#999999;stroke-width:0.25;stroke-miterlimit:10;}
	.st94{clip-path:url(#SVGID_00000038398013916833216200000001921397967304295615_);}
	.st95{clip-path:url(#SVGID_00000083789540215926379170000014107702818247074234_);}
	.st96{clip-path:url(#SVGID_00000053544099719442980620000016131286893585078203_);}
	.st97{clip-path:url(#SVGID_00000121988563451590080790000000128007474962439060_);}
	.st98{clip-path:url(#SVGID_00000169551761364520160610000008502217908673439389_);}
	.st99{opacity:0.1;clip-path:url(#SVGID_00000067208127264431431790000015035530573044314806_);}
	.st100{clip-path:url(#SVGID_00000071551719928027982190000014598521157617886610_);}
	.st101{clip-path:url(#SVGID_00000067208127264431431790000015035530573044314806_);fill:#FFFFFF;}
	.st102{clip-path:url(#SVGID_00000067208127264431431790000015035530573044314806_);}
	.st103{clip-path:url(#SVGID_00000143595030133533348630000008523297911719765671_);}
	.st104{clip-path:url(#SVGID_00000181771462803562009910000006955246241645408687_);}
	
		.st105{clip-path:url(#SVGID_00000154427453571812615610000004169909873584120715_);fill:none;stroke:#999999;stroke-width:0.25;stroke-miterlimit:10;}
	.st106{clip-path:url(#SVGID_00000164494392619139964200000018290243349610494349_);}
	.st107{clip-path:url(#SVGID_00000039841084419548277690000011427873041240948628_);}
	.st108{clip-path:url(#SVGID_00000123441669927683288670000004832064788380298885_);}
	
		.st109{clip-path:url(#SVGID_00000134953532816598020060000011345324303344893613_);fill:none;stroke:#999999;stroke-width:0.25;stroke-miterlimit:10;}
	.st110{clip-path:url(#SVGID_00000040577218806370690450000005625459703662493866_);}
	.st111{clip-path:url(#SVGID_00000183245511232058851220000002100834215948057786_);}
	
		.st112{clip-path:url(#SVGID_00000183936086058338721280000014281993384657613206_);fill:none;stroke:#999999;stroke-width:0.25;stroke-miterlimit:10;}
	.st113{clip-path:url(#SVGID_00000060025763017540890130000006870138161617994148_);}
	.st114{clip-path:url(#SVGID_00000065055029242397860000000006941376057971922104_);}
	
		.st115{clip-path:url(#SVGID_00000065040309469198469370000009280617326620703414_);fill:none;stroke:#999999;stroke-width:0.25;stroke-miterlimit:10;}
	.st116{clip-path:url(#SVGID_00000052101321927807488900000003552296507599746178_);}
	.st117{clip-path:url(#SVGID_00000089576352120499548810000013138382938162010509_);}
	.st118{clip-path:url(#SVGID_00000086683187574108173820000003598491202566807482_);}
	
		.st119{clip-path:url(#SVGID_00000099633387002181111870000006542991910770014360_);fill:none;stroke:#999999;stroke-width:0.25;stroke-miterlimit:10;}
	.st120{clip-path:url(#SVGID_00000041990204468087238880000004049403225188822445_);}
	.st121{clip-path:url(#SVGID_00000155125318625476299550000017597464831342194623_);}
	.st122{clip-path:url(#SVGID_00000036934468377897622880000016193140755821763723_);}
	
		.st123{clip-path:url(#SVGID_00000021824745728823766820000016415141361347951755_);fill:none;stroke:#999999;stroke-width:0.25;stroke-miterlimit:10;}
	.st124{clip-path:url(#SVGID_00000116931441190357603760000014875015004824130189_);}
	.st125{clip-path:url(#SVGID_00000111899892248356146220000015522201800032644287_);}
	
		.st126{clip-path:url(#SVGID_00000132772804395351306880000002386330915654881964_);fill:none;stroke:#999999;stroke-width:0.25;stroke-miterlimit:10;}
	.st127{clip-path:url(#SVGID_00000129204919063026040280000001889889878155903127_);}
	
		.st128{clip-path:url(#SVGID_00000109739922487197760690000017635820057720736172_);fill:none;stroke:#999999;stroke-width:0.25;stroke-miterlimit:10;}
	.st129{clip-path:url(#SVGID_00000013158650383000742800000014206756404876262545_);}
	.st130{clip-path:url(#SVGID_00000119112721683155943990000012665906024723639680_);}
	
		.st131{clip-path:url(#SVGID_00000127029409078655216790000006833817253754173316_);fill:none;stroke:#999999;stroke-width:0.25;stroke-miterlimit:10;}
	.st132{clip-path:url(#SVGID_00000124844993162263846460000011019469769923334799_);}
	.st133{clip-path:url(#SVGID_00000168825302572162129570000015675165491382098600_);}
	.st134{clip-path:url(#SVGID_00000104697330261960357600000004281843909751741118_);}
	
		.st135{clip-path:url(#SVGID_00000072265872363482440100000004040846150764427187_);fill:none;stroke:#999999;stroke-width:0.25;stroke-miterlimit:10;}
	.st136{clip-path:url(#SVGID_00000034788850073861454150000012047236516987671742_);}
	.st137{clip-path:url(#SVGID_00000027602845360673868560000002239713749710066878_);}
	
		.st138{clip-path:url(#SVGID_00000075874715858621651920000009682789522180138642_);fill:none;stroke:#999999;stroke-width:0.25;stroke-miterlimit:10;}
	.st139{clip-path:url(#SVGID_00000020388282925299151690000014844078474220299191_);}
	.st140{clip-path:url(#SVGID_00000183937982433423569970000016378494294210554805_);}
	.st141{clip-path:url(#SVGID_00000080886148174277951970000008871642708356873626_);}
	
		.st142{clip-path:url(#SVGID_00000058583564451499060050000004177370116086379153_);fill:none;stroke:#999999;stroke-width:0.25;stroke-miterlimit:10;}
	.st143{clip-path:url(#SVGID_00000175289209259476678460000008930953168515601078_);}
	.st144{clip-path:url(#SVGID_00000096750217253109188360000000809794240834142898_);}
	
		.st145{clip-path:url(#SVGID_00000156549530035598294390000012262542356778485415_);fill:none;stroke:#999999;stroke-width:0.25;stroke-miterlimit:10;}
	.st146{clip-path:url(#SVGID_00000175291093444960433670000011955908478960811190_);}
	.st147{clip-path:url(#SVGID_00000055671939268925459370000004630154398173358241_);}
	
		.st148{clip-path:url(#SVGID_00000013150736024372078840000010534597898524133544_);fill:none;stroke:#999999;stroke-width:0.25;stroke-miterlimit:10;}
	.st149{clip-path:url(#SVGID_00000101799230276022675660000014064222172629913244_);}
	.st150{clip-path:url(#SVGID_00000046300282062299553020000007947705068786260871_);}
	.st151{clip-path:url(#SVGID_00000109708587967967793740000010895872304399819672_);}
	
		.st152{clip-path:url(#SVGID_00000096739665717016795900000002365753733027194496_);fill:none;stroke:#999999;stroke-width:0.25;stroke-miterlimit:10;}
	.st153{clip-path:url(#SVGID_00000008847385120783971250000003030321058843646340_);}
	.st154{clip-path:url(#SVGID_00000125586664018496358020000012466354096367230398_);}
	.st155{clip-path:url(#SVGID_00000162342571086772169410000000380984647101437883_);}
	.st156{clip-path:url(#SVGID_00000102516761275316520530000014060015234255868806_);}
	.st157{clip-path:url(#SVGID_00000111157621375664204360000014858618797366558643_);}
	
		.st158{clip-path:url(#SVGID_00000050638808442778702120000017170261549843765633_);fill:none;stroke:#000000;stroke-miterlimit:10;}
	.st159{clip-path:url(#SVGID_00000124127254073883096940000010035421634580337579_);fill:#0D6EFD;}
	.st160{clip-path:url(#SVGID_00000032618012690725042290000010313499238810809990_);}
	.st161{clip-path:url(#SVGID_00000034084729324883653970000013482773839816483770_);}
	.st162{clip-path:url(#SVGID_00000001628692172304320360000016501396188256764292_);}
	.st163{fill:#666666;}
	
		.st164{clip-path:url(#SVGID_00000029025551948439054210000003480572306739263120_);fill:none;stroke:#999999;stroke-width:0.25;stroke-miterlimit:10;}
	.st165{clip-path:url(#SVGID_00000135691173203851745680000011460670958677636773_);}
	.st166{clip-path:url(#SVGID_00000152950472234898329430000017760516424036214677_);}
	.st167{clip-path:url(#SVGID_00000071522644146256281560000009440977995090022786_);}
	.st168{clip-path:url(#SVGID_00000057126714814345707280000005412422432955154587_);fill:#FCFCFC;}
	.st169{clip-path:url(#SVGID_00000162353560318420015410000012960109450569679278_);}
	.st170{clip-path:url(#SVGID_00000008835337105355223410000018304236592564398508_);fill:#F5FBFF;}
	.st171{clip-path:url(#SVGID_00000025427396315367895980000011164325545917574041_);fill:#F77B0B;}
	.st172{clip-path:url(#SVGID_00000025427396315367895980000011164325545917574041_);fill:#FFFFFF;}
	
		.st173{clip-path:url(#SVGID_00000045621440331513079270000015438475639885221271_);fill:none;stroke:#999999;stroke-width:0.25;stroke-miterlimit:10;}
	.st174{clip-path:url(#SVGID_00000094590704700251851440000001419411623417506227_);}
	.st175{fill:none;stroke:#000000;stroke-miterlimit:10;}
	.st176{clip-path:url(#SVGID_00000075122517382547687030000001202907855058145669_);}
	.st177{opacity:0.2;clip-path:url(#SVGID_00000174586589373906477860000015118142886354242217_);}
	.st178{clip-path:url(#SVGID_00000057859612553002505470000009718765513361783446_);}
	.st179{clip-path:url(#SVGID_00000174586589373906477860000015118142886354242217_);fill:#FFFFFF;}
	.st180{clip-path:url(#SVGID_00000003827689077551019970000008156709671407157931_);}
	.st181{clip-path:url(#SVGID_00000090269732854725652070000001342420986113892777_);}
	
		.st182{clip-path:url(#SVGID_00000015330824332307187900000018430920982890201519_);fill:none;stroke:#999999;stroke-width:0.25;stroke-miterlimit:10;}
	
		.st183{clip-path:url(#SVGID_00000085231933537612823480000006719320717785865097_);fill:none;stroke:#999999;stroke-width:0.25;stroke-miterlimit:10;}
	
		.st184{clip-path:url(#SVGID_00000101803131096184907960000014322375265659957404_);fill:none;stroke:#2490D0;stroke-width:0.586;stroke-miterlimit:10;}
	
		.st185{clip-path:url(#SVGID_00000101803131096184907960000014322375265659957404_);fill:none;stroke:#999999;stroke-width:0.25;stroke-miterlimit:10;}
	.st186{clip-path:url(#SVGID_00000181784793298715831490000003816892553982652569_);}
	.st187{clip-path:url(#SVGID_00000047773230472324827650000014888759708236677526_);}
	.st188{clip-path:url(#SVGID_00000142882066772155896350000012400478714604957586_);}
	.st189{clip-path:url(#SVGID_00000170981797048935356390000012036510228591742384_);}
	.st190{clip-path:url(#SVGID_00000159442553642934674930000016631368227238145459_);}
	
		.st191{clip-path:url(#SVGID_00000036930277244897861550000001152852633066903959_);fill:none;stroke:#999999;stroke-width:0.25;stroke-miterlimit:10;}
	.st192{clip-path:url(#SVGID_00000173857941555308710780000000670934986592462994_);}
	.st193{clip-path:url(#SVGID_00000057847597973146059990000017446251571092156586_);}
	.st194{clip-path:url(#SVGID_00000058564729510662137060000007867398353840522655_);fill:#0D6EFD;}
	.st195{clip-path:url(#SVGID_00000089560054668738820470000007205017543976179098_);}
	.st196{clip-path:url(#SVGID_00000173149927364259938730000005735746359109996189_);}
	.st197{clip-path:url(#SVGID_00000083078905455774580030000000400870433428278956_);}
	.st198{clip-path:url(#SVGID_00000117663342420297602770000006936730654318713489_);}
	.st199{clip-path:url(#SVGID_00000119828370894931855950000015635442326352685724_);}
	.st200{clip-path:url(#SVGID_00000147908582608637770440000009695010008030062239_);}
	.st201{clip-path:url(#SVGID_00000109023461984210154220000012678565631095116194_);fill:#F5FBFF;}
	.st202{clip-path:url(#SVGID_00000060736230647273448300000007907622058553043890_);fill:#F77B0B;}
	.st203{clip-path:url(#SVGID_00000060736230647273448300000007907622058553043890_);fill:#FFFFFF;}
	
		.st204{clip-path:url(#SVGID_00000013150639020608044300000005777074934828533949_);fill:none;stroke:#999999;stroke-width:0.25;stroke-miterlimit:10;}
	.st205{clip-path:url(#SVGID_00000021112544736660063740000014189246945999353018_);}
	.st206{clip-path:url(#SVGID_00000078015875958845635100000008048421333586338990_);fill:#0D6EFD;}
	.st207{clip-path:url(#SVGID_00000145024293965224478810000011813498236577030818_);}
	.st208{clip-path:url(#SVGID_00000063632805595777714090000017785123376412492698_);}
	.st209{clip-path:url(#SVGID_00000085970447219107324090000002441988531219639713_);}
	
		.st210{clip-path:url(#SVGID_00000114759796799038939180000012384507629098235029_);fill:none;stroke:#999999;stroke-width:0.25;stroke-miterlimit:10;}
	.st211{clip-path:url(#SVGID_00000040541516173650400330000014159505150686565292_);}
	.st212{clip-path:url(#SVGID_00000093156018826150774700000016715254148293551529_);}
	
		.st213{clip-path:url(#SVGID_00000157293061918621327150000012885155124915776662_);fill:none;stroke:#999999;stroke-width:0.25;stroke-miterlimit:10;}
	
		.st214{clip-path:url(#SVGID_00000107585801234032478180000010248971502551553413_);fill:none;stroke:#999999;stroke-width:0.25;stroke-miterlimit:10;}
	.st215{clip-path:url(#SVGID_00000107585801234032478180000010248971502551553413_);fill:#1A5C96;}
	.st216{clip-path:url(#SVGID_00000107585801234032478180000010248971502551553413_);fill:#FFFFFF;}
	.st217{clip-path:url(#SVGID_00000134248773739693257100000007440196193202917774_);fill:#FFFFFF;}
	
		.st218{clip-path:url(#SVGID_00000002375602354353758810000000054160584370172605_);fill:none;stroke:#666666;stroke-width:0.5;stroke-miterlimit:10;}
	
		.st219{clip-path:url(#SVGID_00000145764829054567195220000008904854684682022079_);fill:none;stroke:#666666;stroke-width:0.5;stroke-miterlimit:10;}
	
		.st220{clip-path:url(#SVGID_00000173848369940560691160000001648320130342962060_);fill:none;stroke:#666666;stroke-width:0.5;stroke-miterlimit:10;}
	
		.st221{clip-path:url(#SVGID_00000047027154272192603200000005018003792523030429_);fill:none;stroke:#666666;stroke-width:0.5;stroke-miterlimit:10;}
	
		.st222{clip-path:url(#SVGID_00000183229561411770967560000012376712779401908128_);fill:none;stroke:#666666;stroke-width:0.5;stroke-miterlimit:10;}
	
		.st223{clip-path:url(#SVGID_00000118365438691799119920000004041767492058953600_);fill:none;stroke:#666666;stroke-width:0.5;stroke-miterlimit:10;}
	.st224{clip-path:url(#SVGID_00000183927624094847241340000008805767239344451712_);}
	.st225{clip-path:url(#SVGID_00000164514097203851581360000014390013958763045808_);}
	.st226{opacity:0.2;clip-path:url(#SVGID_00000050657699138069391990000010683159629834827957_);}
	.st227{clip-path:url(#SVGID_00000179632013323181366520000005545532003435061388_);}
	.st228{clip-path:url(#SVGID_00000050657699138069391990000010683159629834827957_);fill:#FFFFFF;}
	.st229{clip-path:url(#SVGID_00000103240843718326951050000012804183587946629784_);}
	.st230{clip-path:url(#SVGID_00000050657699138069391990000010683159629834827957_);}
	.st231{clip-path:url(#SVGID_00000021841572870306526800000001673529122739117230_);}
	
		.st232{clip-path:url(#SVGID_00000129916517388854989620000003516059605569554325_);fill:none;stroke:#999999;stroke-width:0.25;stroke-miterlimit:10;}
	.st233{clip-path:url(#SVGID_00000161606898534232839030000013953947985141838502_);}
	.st234{clip-path:url(#SVGID_00000028326985085161765410000013779056508445686913_);}
	.st235{clip-path:url(#SVGID_00000110453917564741882840000006397347361901668233_);}
	
		.st236{clip-path:url(#SVGID_00000047049734278025247370000013994780922319021215_);fill:none;stroke:#999999;stroke-width:0.25;stroke-miterlimit:10;}
	.st237{clip-path:url(#SVGID_00000144329926512380284060000001902402039882807194_);}
	.st238{clip-path:url(#SVGID_00000060021476155082048200000000759098607958366632_);}
	
		.st239{clip-path:url(#SVGID_00000096739979952699406470000016748763681361398933_);fill:none;stroke:#999999;stroke-width:0.25;stroke-miterlimit:10;}
	.st240{clip-path:url(#SVGID_00000042734459150190543520000006686566455707083159_);}
	.st241{clip-path:url(#SVGID_00000117667046082041500270000016396956836057090487_);}
	.st242{clip-path:url(#SVGID_00000030485878330534963730000015452934927635434660_);}
	
		.st243{clip-path:url(#SVGID_00000048473891356206719940000012384677065244567952_);fill:none;stroke:#999999;stroke-width:0.25;stroke-miterlimit:10;}
	.st244{clip-path:url(#SVGID_00000171687050039997952550000008380779027896230326_);}
	.st245{clip-path:url(#SVGID_00000037660082994619422050000003533846200031044508_);}
	
		.st246{clip-path:url(#SVGID_00000021109810069651694740000003344889622267589309_);fill:none;stroke:#999999;stroke-width:0.25;stroke-miterlimit:10;}
	.st247{clip-path:url(#SVGID_00000026853967335694773160000018144576399690720158_);}
	.st248{clip-path:url(#SVGID_00000091705825966005426660000002388930536875912113_);}
	
		.st249{clip-path:url(#SVGID_00000110458778833406094840000004954793058337896085_);fill:none;stroke:#999999;stroke-width:0.25;stroke-miterlimit:10;}
	.st250{clip-path:url(#SVGID_00000153706831975068301850000000933023430417372563_);}
	
		.st251{clip-path:url(#SVGID_00000016058311907581490690000005809467165803874994_);fill:none;stroke:#999999;stroke-width:0.25;stroke-miterlimit:10;}
	.st252{clip-path:url(#SVGID_00000068652212987193739550000012131470728787229875_);}
	.st253{clip-path:url(#SVGID_00000143615574095509327470000015056732119933127818_);}
	.st254{clip-path:url(#SVGID_00000000915884011823880370000004270001529070472602_);}
	
		.st255{clip-path:url(#SVGID_00000156566798858403792620000018220198152120460953_);fill:none;stroke:#999999;stroke-width:0.25;stroke-miterlimit:10;}
	.st256{clip-path:url(#SVGID_00000088132625237514447780000014195263595073320381_);}
	.st257{clip-path:url(#SVGID_00000073686300506785229830000000814081607637804698_);}
	
		.st258{clip-path:url(#SVGID_00000047744433898438487650000011718849312313631676_);fill:none;stroke:#999999;stroke-width:0.25;stroke-miterlimit:10;}
	.st259{clip-path:url(#SVGID_00000032649209270642307930000000747411795664755589_);}
	.st260{clip-path:url(#SVGID_00000056416434321216847160000001741328348569530302_);}
	.st261{clip-path:url(#SVGID_00000155869079503033738510000011124513302447230611_);}
	
		.st262{clip-path:url(#SVGID_00000044870142751272030370000017670099467740899496_);fill:none;stroke:#999999;stroke-width:0.25;stroke-miterlimit:10;}
	.st263{clip-path:url(#SVGID_00000058564464652926039800000017199805805184040086_);}
	.st264{clip-path:url(#SVGID_00000072976369101514858140000003919090097659739292_);}
	
		.st265{clip-path:url(#SVGID_00000147921455187981753200000007371921764982765445_);fill:none;stroke:#999999;stroke-width:0.25;stroke-miterlimit:10;}
	.st266{clip-path:url(#SVGID_00000055703221311148688980000012068720516406979208_);}
	.st267{clip-path:url(#SVGID_00000082353937204918210680000013694201419770502553_);}
	.st268{clip-path:url(#SVGID_00000151529273682064857700000006229344369560169104_);}
	
		.st269{clip-path:url(#SVGID_00000130610278679239829610000014013001155368025757_);fill:none;stroke:#999999;stroke-width:0.25;stroke-miterlimit:10;}
	.st270{clip-path:url(#SVGID_00000001658119432687277920000016967671594599353254_);}
	.st271{clip-path:url(#SVGID_00000018200773295945144180000005696860546830237572_);fill:#F77B0B;}
	.st272{clip-path:url(#SVGID_00000166665277723121480030000013323561708396526769_);}
	
		.st273{clip-path:url(#SVGID_00000134232619126464643910000015975970619760200615_);fill:none;stroke:#999999;stroke-width:0.25;stroke-miterlimit:10;}
	.st274{clip-path:url(#SVGID_00000129179388202691881600000012831153638525586838_);}
	.st275{clip-path:url(#SVGID_00000076567508538178715190000002202110250674484611_);}
	.st276{clip-path:url(#SVGID_00000075162922154577915500000015827851824293641399_);}
	
		.st277{clip-path:url(#SVGID_00000138572253282981194320000015708345273131175590_);fill:none;stroke:#999999;stroke-width:0.25;stroke-miterlimit:10;}
	.st278{clip-path:url(#SVGID_00000021121630660746480280000008621779342705700271_);}
	.st279{clip-path:url(#SVGID_00000146491308040669071930000006424862370468041128_);}
	
		.st280{clip-path:url(#SVGID_00000142166669910587298740000010191289869243889067_);fill:none;stroke:#999999;stroke-width:0.25;stroke-miterlimit:10;}
	.st281{clip-path:url(#SVGID_00000049926165953724527890000010613314015321211546_);}
	.st282{clip-path:url(#SVGID_00000072985240471812818300000009554668312385146789_);}
	.st283{clip-path:url(#SVGID_00000083087433075264175830000015143890065733176203_);}
	
		.st284{clip-path:url(#SVGID_00000075155639824783008800000005777616550744631222_);fill:none;stroke:#999999;stroke-width:0.25;stroke-miterlimit:10;}
	.st285{clip-path:url(#SVGID_00000176759542317507973440000006735948225723800471_);}
	.st286{clip-path:url(#SVGID_00000181072779792236228020000008116490832891816090_);fill:#F77B0B;}
	.st287{clip-path:url(#SVGID_00000132794184342417662030000015673370836243034026_);fill:#F77B0B;}
	.st288{clip-path:url(#SVGID_00000031171861283000470270000008825859178471075227_);fill:#F77B0B;}
	.st289{fill:#F4F4F4;stroke:#999999;stroke-width:0.25;stroke-miterlimit:10;}
	.st290{fill:#1A5C96;}
	.st291{clip-path:url(#SVGID_00000026861897385602401510000015022296570596604092_);}
	.st292{clip-path:url(#SVGID_00000178899400866404452630000006129202321487816337_);fill:#F5FBFF;}
	.st293{clip-path:url(#SVGID_00000101810271451839124460000010859134087147229861_);fill:#F77B0B;}
	.st294{clip-path:url(#SVGID_00000101810271451839124460000010859134087147229861_);fill:#FFFFFF;}
	
		.st295{clip-path:url(#SVGID_00000084503055835446074070000016366909138550121605_);fill:none;stroke:#999999;stroke-width:0.25;stroke-miterlimit:10;}
	.st296{clip-path:url(#SVGID_00000173152334040155271960000010809548019443544963_);}
	.st297{clip-path:url(#SVGID_00000165956059957591645620000013428037497044498357_);fill:#0D6EFD;}
	.st298{clip-path:url(#SVGID_00000158027809178511745130000001225349420238591400_);}
	.st299{clip-path:url(#SVGID_00000106865938370265023880000013577727053892827801_);}
	.st300{clip-path:url(#SVGID_00000105398142519624783140000017664640324028813474_);}
	
		.st301{clip-path:url(#SVGID_00000129912492904263272090000004532742255228594839_);fill:none;stroke:#999999;stroke-width:0.25;stroke-miterlimit:10;}
	.st302{clip-path:url(#SVGID_00000096045231861887750960000017468355239579248049_);}
	.st303{clip-path:url(#SVGID_00000176000876603374968620000006226977129575384205_);}
	
		.st304{clip-path:url(#SVGID_00000181083699612210536110000008059729536100027561_);fill:none;stroke:#999999;stroke-width:0.25;stroke-miterlimit:10;}
	.st305{clip-path:url(#SVGID_00000087402778441809057590000007321158467742112681_);fill:#FFFFFF;}
	
		.st306{clip-path:url(#SVGID_00000099644594053981913440000010991196864292128436_);fill:none;stroke:#666666;stroke-width:0.5;stroke-miterlimit:10;}
	
		.st307{clip-path:url(#SVGID_00000178178865595292058770000001707464795292131481_);fill:none;stroke:#666666;stroke-width:0.5;stroke-miterlimit:10;}
	
		.st308{clip-path:url(#SVGID_00000081610990776987096270000007319568355107355302_);fill:none;stroke:#666666;stroke-width:0.5;stroke-miterlimit:10;}
	
		.st309{clip-path:url(#SVGID_00000165945947506286286880000004115479587713131178_);fill:none;stroke:#666666;stroke-width:0.5;stroke-miterlimit:10;}
	
		.st310{clip-path:url(#SVGID_00000159438153728988364540000002036154698546122896_);fill:none;stroke:#666666;stroke-width:0.5;stroke-miterlimit:10;}
	
		.st311{clip-path:url(#SVGID_00000096061490854224433910000013215443480858893224_);fill:none;stroke:#666666;stroke-width:0.5;stroke-miterlimit:10;}
	.st312{clip-path:url(#SVGID_00000027572580078997787970000015339874686694804660_);}
	.st313{opacity:0.2;clip-path:url(#SVGID_00000041286302889311411190000012476518330197213361_);}
	.st314{clip-path:url(#SVGID_00000108309720929765484010000005735653286548736401_);}
	.st315{clip-path:url(#SVGID_00000041286302889311411190000012476518330197213361_);fill:#FFFFFF;}
	.st316{clip-path:url(#SVGID_00000034774621252699079310000002590063789688253857_);}
	.st317{clip-path:url(#SVGID_00000041286302889311411190000012476518330197213361_);}
	.st318{clip-path:url(#SVGID_00000007402549801646666760000014885306014085377983_);}
	
		.st319{clip-path:url(#SVGID_00000065057111149116370950000004990233846705091487_);fill:none;stroke:#999999;stroke-width:0.25;stroke-miterlimit:10;}
	.st320{clip-path:url(#SVGID_00000137826255320787600770000002007569184193739950_);}
	.st321{clip-path:url(#SVGID_00000161594097610464950190000016675043492575963529_);}
	.st322{clip-path:url(#SVGID_00000147940367238589066640000000942048500383196822_);}
	
		.st323{clip-path:url(#SVGID_00000075159090916003228970000017653811056965869190_);fill:none;stroke:#999999;stroke-width:0.25;stroke-miterlimit:10;}
	.st324{clip-path:url(#SVGID_00000044897870363067010720000001955399108627595911_);}
	.st325{clip-path:url(#SVGID_00000005974452837649228510000008947851504103638713_);}
	
		.st326{clip-path:url(#SVGID_00000170277630905377991890000005909467906641973676_);fill:none;stroke:#999999;stroke-width:0.25;stroke-miterlimit:10;}
	.st327{clip-path:url(#SVGID_00000125578597333190531690000008784410711546231431_);}
	.st328{clip-path:url(#SVGID_00000117655642707937298820000014613832856071791290_);}
	.st329{clip-path:url(#SVGID_00000114757788813427730170000012196652438684565676_);}
	
		.st330{clip-path:url(#SVGID_00000039815738131473001160000016595427318494021511_);fill:none;stroke:#999999;stroke-width:0.25;stroke-miterlimit:10;}
	.st331{clip-path:url(#SVGID_00000136407024263179994400000016623568485289182378_);}
	.st332{clip-path:url(#SVGID_00000075141090533195985080000012713506679992682657_);}
	
		.st333{clip-path:url(#SVGID_00000057133764819879420550000000362615019734652337_);fill:none;stroke:#999999;stroke-width:0.25;stroke-miterlimit:10;}
	.st334{clip-path:url(#SVGID_00000137818039799073400350000006777074178224016292_);}
	.st335{clip-path:url(#SVGID_00000180347322168464683990000002829866546643209643_);}
	
		.st336{clip-path:url(#SVGID_00000150814430440489850040000006018452851735074446_);fill:none;stroke:#999999;stroke-width:0.25;stroke-miterlimit:10;}
	.st337{clip-path:url(#SVGID_00000053509104864678307120000006866558887864858496_);}
	
		.st338{clip-path:url(#SVGID_00000031913541471095700220000006468630640046538624_);fill:none;stroke:#999999;stroke-width:0.25;stroke-miterlimit:10;}
	.st339{clip-path:url(#SVGID_00000088836710822947808900000013155273575498390439_);}
	.st340{clip-path:url(#SVGID_00000124152927212133645110000011944101421955959956_);}
	.st341{clip-path:url(#SVGID_00000150820044324912812660000015383603907466864574_);}
	
		.st342{clip-path:url(#SVGID_00000146501219287125725340000016433510167822527878_);fill:none;stroke:#999999;stroke-width:0.25;stroke-miterlimit:10;}
	.st343{clip-path:url(#SVGID_00000137819508677047878730000007235509892465609609_);}
	.st344{clip-path:url(#SVGID_00000157310532706360036790000011012085754282582972_);}
	
		.st345{clip-path:url(#SVGID_00000148658654494043642970000002531815716701216400_);fill:none;stroke:#999999;stroke-width:0.25;stroke-miterlimit:10;}
	.st346{clip-path:url(#SVGID_00000109745691463916317120000007894400011298999231_);}
	.st347{clip-path:url(#SVGID_00000026146474028498724270000016429356919064509328_);}
	.st348{clip-path:url(#SVGID_00000163058622302066524480000000005469819834803631_);}
	
		.st349{clip-path:url(#SVGID_00000032624809405739387120000010223321222918187398_);fill:none;stroke:#999999;stroke-width:0.25;stroke-miterlimit:10;}
	.st350{clip-path:url(#SVGID_00000093878701123959052340000009321254617286894004_);}
	.st351{clip-path:url(#SVGID_00000110449323688556749300000004517829711215965630_);}
	
		.st352{clip-path:url(#SVGID_00000052072606906217383890000007923277272806752427_);fill:none;stroke:#999999;stroke-width:0.25;stroke-miterlimit:10;}
	.st353{clip-path:url(#SVGID_00000023980391357641905070000011870181944453436326_);}
	.st354{clip-path:url(#SVGID_00000083784694931128200520000004436427301338600331_);}
	.st355{clip-path:url(#SVGID_00000031189844679896464060000008613465321239434142_);}
	
		.st356{clip-path:url(#SVGID_00000158709152534594144810000004010032990760963249_);fill:none;stroke:#999999;stroke-width:0.25;stroke-miterlimit:10;}
	.st357{clip-path:url(#SVGID_00000068679029278014607640000006877265564528280228_);}
	.st358{clip-path:url(#SVGID_00000167383302696013597570000006049972255758543000_);fill:#F77B0B;}
	.st359{clip-path:url(#SVGID_00000019661248862247541280000014412946695203517366_);}
	
		.st360{clip-path:url(#SVGID_00000114781147012246025420000003002818392571241394_);fill:none;stroke:#999999;stroke-width:0.25;stroke-miterlimit:10;}
	.st361{clip-path:url(#SVGID_00000062913823401772575660000011876794084730708101_);}
	.st362{clip-path:url(#SVGID_00000142152038044350231910000005094709097955325874_);}
	.st363{clip-path:url(#SVGID_00000168810345686283229690000007923301200299145612_);}
	
		.st364{clip-path:url(#SVGID_00000181781068252646655880000011411114801288857019_);fill:none;stroke:#999999;stroke-width:0.25;stroke-miterlimit:10;}
	.st365{clip-path:url(#SVGID_00000029766656558981479850000006163222234279666059_);}
	.st366{clip-path:url(#SVGID_00000033330644541258507160000006097391421303498665_);}
	
		.st367{clip-path:url(#SVGID_00000078731741450115856540000002675211233602638759_);fill:none;stroke:#999999;stroke-width:0.25;stroke-miterlimit:10;}
	.st368{clip-path:url(#SVGID_00000131340995132755629350000005190751935818834598_);}
	.st369{clip-path:url(#SVGID_00000075145603288833362350000001706556789704364173_);}
	.st370{clip-path:url(#SVGID_00000150101557601062306830000001874479243561653949_);}
	
		.st371{clip-path:url(#SVGID_00000084523322226149445000000008685859596467037372_);fill:none;stroke:#999999;stroke-width:0.25;stroke-miterlimit:10;}
	.st372{clip-path:url(#SVGID_00000163041439673314744400000009648795732701317284_);}
	.st373{clip-path:url(#SVGID_00000028288355911511684770000014234697535053532087_);fill:#F77B0B;}
	.st374{clip-path:url(#SVGID_00000147220023769122087610000004274230990543518866_);fill:#F77B0B;}
	.st375{clip-path:url(#SVGID_00000054234499595535889470000003394120645280374184_);fill:#F77B0B;}
	.st376{fill:#003F27;}
	.st377{clip-path:url(#SVGID_00000132788956625264979760000011165725913325321117_);}
	.st378{clip-path:url(#SVGID_00000066478639907912865050000000206287437816809616_);}
	.st379{clip-path:url(#SVGID_00000018934290518609454170000007335745231742826142_);}
	.st380{fill:none;stroke:#999999;stroke-width:0.5;stroke-miterlimit:10;}
	.st381{clip-path:url(#SVGID_00000034807074621911043100000011418121451829331095_);}
</style>
<g>
	<path d="M60,16.28c-0.3,0.24-0.57,0.52-0.9,0.71c-1.15,0.66-2.33,1.26-3.48,1.92c-0.27,0.15-0.52,0.41-0.68,0.68
		c-0.7,1.22-1.35,2.46-2.03,3.69c-0.48,0.87-1.01,0.94-1.7,0.25c-0.44-0.44-0.87-0.89-1.33-1.32c-0.38-0.36-0.5-0.75-0.33-1.26
		c0.26-0.76,0.48-1.52,0.7-2.29c0.05-0.17,0.07-0.44-0.03-0.53c-1.13-1.1-2.28-2.17-3.48-3.3c-0.51,0.91-1,1.75-1.43,2.61
		c-0.08,0.15,0.06,0.47,0.18,0.65c1.51,2.07,2.64,4.33,3.31,6.8c1.66,6.12,0.88,11.92-2.45,17.32c-2.53,4.1-6.11,7.02-10.61,8.73
		c-3.75,1.43-7.63,1.84-11.57,1.03c-7.85-1.61-13.39-6.15-16.23-13.62c-2.51-6.6-1.81-13.06,1.97-19.06
		c3.42-5.44,8.4-8.68,14.71-9.74c5.3-0.89,10.28,0.15,14.87,2.99c0.35,0.22,0.69,0.44,1.11,0.7c0.32-1.05,0.64-2.06,0.92-3.08
		c0.03-0.13-0.12-0.35-0.24-0.47c-1.18-1.17-2.36-2.33-3.55-3.48c-0.13-0.13-0.33-0.19-0.51-0.27c-0.38-0.16-0.77-0.27-1.14-0.45
		c-0.42-0.21-0.57-0.6-0.44-1.04c0.13-0.44,0.46-0.67,0.93-0.63c0.17,0.01,0.34,0.05,0.48,0.07c0.3-0.54,0.52-1.11,0.88-1.57
		c1.31-1.63,3.41-1.7,4.85-0.2c0.93,0.97,1.87,1.94,2.76,2.95c0.36,0.41,0.67,0.45,1.16,0.3c2.88-0.9,5.78-1.75,8.67-2.65
		c0.67-0.21,1.15-0.1,1.61,0.42c0.5,0.57,1.07,1.08,1.61,1.62c0.7,0.71,0.63,1.28-0.24,1.77c-2.26,1.27-4.53,2.52-6.8,3.79
		c-0.2,0.11-0.4,0.23-0.68,0.39c0.25,0.26,0.46,0.5,0.68,0.73c0.8,0.85,1.62,1.7,2.41,2.56c0.23,0.25,0.42,0.33,0.76,0.21
		c0.73-0.26,1.49-0.45,2.24-0.69c0.52-0.17,0.95-0.1,1.32,0.33c0.55,0.63,1.13,1.23,1.7,1.85C60,15.89,60,16.09,60,16.28z
		 M32.27,11.45c0,0.1-0.01,0.13,0,0.14c0.08,0.13,0.17,0.26,0.25,0.39c0.99,1.59,1.3,3.27,0.7,5.09c-0.53,1.61-1.45,3-2.66,4.15
		c-2.27,2.17-4.65,4.24-6.93,6.4c-0.73,0.69-1.37,1.5-1.93,2.33c-0.52,0.78-0.36,1.5,0.31,2.17c0.26,0.26,0.55,0.51,0.87,0.68
		c0.82,0.45,1.69,0.82,2.49,1.29c0.9,0.53,1.84,1.06,2.62,1.74c1.21,1.07,0.87,2.51-0.65,3.05c-2.43,0.86-4.88,0.78-7.31,0.07
		c-2.37-0.69-4.35-2.06-6.22-3.64c-1.41-1.2-2.86-2.36-4.31-3.51c-0.25-0.2-0.61-0.25-0.96-0.39c0.28,12.41,12.3,21.37,24,18.48
		c-0.23-1.57-0.12-3.12,0.54-4.58c0.86-1.88,2.22-3.38,3.74-4.75c1.18-1.06,2.38-2.09,3.48-3.22c1.53-1.56,2.65-3.36,2.86-5.62
		c0.1-1.09,0.25-2.23,1.12-3.01c0.84-0.74,1.78-1.37,2.72-2c0.29-0.2,0.41-0.36,0.31-0.7c-0.16-0.52-0.28-1.06-0.46-1.57
		c-0.62-1.82-1.46-3.52-2.61-5.14c-0.58,1.05-1.13,2.06-1.7,3.05c-0.41,0.71-0.99,0.79-1.57,0.22c-0.62-0.6-1.21-1.22-1.85-1.8
		c-0.47-0.43-0.55-0.88-0.36-1.47c0.4-1.22,0.73-2.47,1.13-3.69c0.15-0.44,0.14-0.74-0.31-1c-0.75-0.42-1.44-0.94-2.19-1.34
		C35.79,12.44,34.1,11.81,32.27,11.45z M8.54,29.62c1.16,0.12,2.08,0.64,2.92,1.34c1.29,1.08,2.55,2.18,3.84,3.26
		c2.23,1.85,4.66,3.28,7.65,3.44c1.28,0.07,2.56,0.03,3.87-0.52c-0.27-0.23-0.45-0.44-0.67-0.56c-1.2-0.65-2.44-1.23-3.61-1.92
		c-0.75-0.44-1.51-0.94-2.1-1.56c-1.18-1.24-1.18-2.82-0.05-4.45c0.55-0.8,1.19-1.55,1.9-2.21c2.28-2.13,4.63-4.19,6.92-6.32
		c0.95-0.88,1.65-1.96,2.12-3.19c0.9-2.35-0.41-4.4-1.88-5.73c-0.09-0.08-0.25-0.09-0.38-0.09c-2.32-0.11-4.61,0.16-6.81,0.87
		c-4.82,1.57-8.55,4.53-11.11,8.91C9.58,23.57,8.72,26.46,8.54,29.62z M56.73,5.45c-0.75-1.01-0.75-1.01-1.82-0.68
		c-2.82,0.85-5.64,1.68-8.45,2.56c-0.68,0.21-1.14,0.07-1.6-0.44c-1.08-1.19-2.2-2.33-3.29-3.5c-0.41-0.44-0.9-0.62-1.48-0.45
		c-1.14,0.33-1.51,1.68-0.66,2.5c1.18,1.14,2.37,2.27,3.59,3.37c0.49,0.44,0.58,0.9,0.39,1.51c-0.92,2.96-1.81,5.93-2.7,8.9
		c-0.06,0.2-0.09,0.48,0.01,0.63c0.2,0.29,0.49,0.52,0.78,0.81c1.43-2.55,2.81-5.02,4.19-7.49c0.46-0.82,0.98-0.91,1.68-0.26
		c1.51,1.41,3.01,2.84,4.53,4.25c0.39,0.37,0.5,0.77,0.34,1.26c-0.24,0.76-0.44,1.54-0.7,2.29c-0.14,0.41-0.05,0.66,0.37,0.85
		c0.56-1.03,1.14-2.03,1.65-3.06c0.24-0.48,0.56-0.81,1.04-1.05c1.04-0.53,2.06-1.11,3.08-1.66c-0.22-0.42-0.48-0.5-0.88-0.36
		c-0.72,0.25-1.46,0.43-2.18,0.68c-0.57,0.19-1,0.07-1.41-0.37c-1.36-1.48-2.74-2.94-4.12-4.41c-0.75-0.8-0.67-1.3,0.29-1.83
		c2.09-1.15,4.17-2.29,6.26-3.44C55.99,5.87,56.35,5.66,56.73,5.45z M47.68,28.36c-1.55,0.78-2.66,1.81-2.77,3.65
		c-0.13,2.15-1.01,4.02-2.45,5.57c-1.38,1.48-2.87,2.86-4.36,4.23c-1.34,1.24-2.61,2.53-3.36,4.23c-0.48,1.08-0.64,2.22-0.41,3.41
		C44,46.29,48.92,36.61,47.68,28.36z"/>
	<path d="M56.4,31.71c-0.05,0.54-0.07,1.09-0.14,1.63c-0.07,0.53-0.48,0.85-0.98,0.79c-0.52-0.06-0.82-0.38-0.81-0.9
		c0.02-0.9,0.05-1.79,0.12-2.69c0.04-0.54,0.43-0.85,0.95-0.81c0.53,0.04,0.81,0.35,0.84,0.87c0.02,0.37,0,0.74,0,1.11
		C56.39,31.71,56.4,31.71,56.4,31.71z"/>
	<path d="M22.87,58.48c-0.75-0.19-1.68-0.4-2.59-0.68c-0.48-0.15-0.69-0.66-0.53-1.09c0.18-0.49,0.53-0.72,1.05-0.61
		c0.85,0.18,1.71,0.37,2.56,0.58c0.53,0.13,0.8,0.55,0.71,1.03C23.98,58.2,23.59,58.49,22.87,58.48z"/>
	<path d="M23.2,4.84c-0.75,0.02-1.13-0.27-1.19-0.76c-0.06-0.5,0.2-0.92,0.74-1.02c0.84-0.16,1.69-0.28,2.54-0.37
		c0.59-0.06,0.99,0.26,1.06,0.76c0.07,0.49-0.23,0.92-0.81,1.03C24.7,4.63,23.85,4.74,23.2,4.84z"/>
	<path d="M0.21,26.98c0.11-0.63,0.25-1.51,0.45-2.39c0.12-0.52,0.59-0.78,1.06-0.68c0.47,0.1,0.78,0.54,0.69,1.06
		c-0.13,0.83-0.27,1.65-0.43,2.47c-0.11,0.58-0.52,0.87-1.03,0.81C0.47,28.2,0.19,27.82,0.21,26.98z"/>
	<path d="M30.29,2.56c0.64,0.08,1.38,0.15,2.11,0.26c0.56,0.08,0.91,0.52,0.86,1c-0.06,0.51-0.5,0.87-1.1,0.83
		c-0.8-0.06-1.59-0.16-2.38-0.28c-0.63-0.1-0.94-0.48-0.87-1.02c0.06-0.51,0.43-0.79,1.05-0.78C30.04,2.56,30.11,2.56,30.29,2.56z"
		/>
	<path d="M16.39,7.1c-0.28-0.28-0.65-0.49-0.72-0.77c-0.07-0.29,0.07-0.83,0.28-0.95c0.89-0.46,1.82-0.84,2.77-1.18
		c0.4-0.14,0.83,0.08,0.92,0.51c0.06,0.31,0,0.87-0.2,0.98C18.5,6.21,17.49,6.61,16.39,7.1z"/>
	<path d="M40.51,55.98c-0.17-0.14-0.56-0.31-0.64-0.57c-0.09-0.29-0.03-0.84,0.17-0.98c0.81-0.56,1.68-1.04,2.57-1.49
		c0.39-0.2,0.77,0.03,0.99,0.4c0.22,0.37,0.22,0.83-0.13,1.06c-0.82,0.55-1.7,1.01-2.56,1.5C40.84,55.94,40.76,55.93,40.51,55.98z"
		/>
	<path d="M1.98,33.54c0.05,1.09-0.2,1.55-0.8,1.59c-0.59,0.04-0.95-0.38-1.04-1.3C0.07,33.17,0.02,32.51,0,31.85
		c-0.01-0.58,0.34-0.97,0.84-1.02c0.48-0.04,0.9,0.31,0.98,0.88C1.91,32.37,1.94,33.04,1.98,33.54z"/>
	<path d="M28.62,58.94c-0.37,0-0.74,0.01-1.11,0c-0.61-0.03-1.01-0.41-1-0.93c0.01-0.49,0.39-0.88,0.97-0.9
		c0.82-0.04,1.64-0.05,2.46-0.03c0.5,0.01,0.87,0.38,0.87,0.85c0.01,0.52-0.27,0.84-0.78,0.93c-0.06,0.01-0.12,0.02-0.17,0.03
		C29.44,58.91,29.03,58.92,28.62,58.94z"/>
	<path d="M2.56,41.73c-0.13-0.14-0.48-0.35-0.62-0.66c-0.32-0.73-0.55-1.5-0.79-2.26c-0.17-0.56,0.06-1.03,0.54-1.19
		c0.5-0.17,0.97,0.04,1.18,0.58c0.3,0.78,0.58,1.57,0.81,2.38C3.87,41.2,3.42,41.74,2.56,41.73z"/>
	<path d="M8.88,49.11c0.33,0.19,0.6,0.31,0.81,0.48c0.55,0.46,1.08,0.95,1.61,1.44c0.48,0.44,0.55,0.98,0.2,1.38
		c-0.35,0.4-0.86,0.44-1.35,0.03c-0.62-0.52-1.26-1.05-1.79-1.66c-0.21-0.24-0.27-0.72-0.19-1.05C8.23,49.49,8.61,49.33,8.88,49.11z
		"/>
	<path d="M49.09,49.38c-0.19,0.32-0.3,0.59-0.47,0.77c-0.51,0.54-1.04,1.05-1.58,1.55c-0.47,0.44-1.03,0.45-1.4,0.06
		c-0.38-0.4-0.33-0.92,0.15-1.39c0.54-0.54,1.05-1.1,1.65-1.57c0.24-0.19,0.7-0.26,1-0.17C48.69,48.73,48.86,49.11,49.09,49.38z"/>
	<path d="M6.15,15.64c-0.77-0.01-1.26-0.72-0.89-1.28c0.53-0.81,1.16-1.56,1.8-2.28c0.31-0.34,0.76-0.29,1.11,0.01
		c0.36,0.29,0.49,0.72,0.23,1.09c-0.55,0.77-1.16,1.5-1.78,2.23C6.49,15.55,6.25,15.59,6.15,15.64z"/>
	<path d="M16.72,56.46c-0.34-0.12-0.55-0.16-0.73-0.26c-0.64-0.33-1.27-0.67-1.9-1.02c-0.58-0.33-0.77-0.81-0.52-1.3
		c0.25-0.49,0.77-0.62,1.36-0.32c0.71,0.36,1.41,0.74,2.1,1.14c0.41,0.23,0.57,0.64,0.38,1.05C17.28,56.04,16.95,56.24,16.72,56.46z
		"/>
	<path d="M4.96,43.84c0.12,0.09,0.42,0.23,0.59,0.46c0.46,0.62,0.88,1.28,1.29,1.94c0.31,0.51,0.22,1-0.2,1.29
		c-0.42,0.3-0.94,0.23-1.28-0.25C4.88,46.62,4.41,45.95,4,45.24C3.61,44.57,4.06,43.81,4.96,43.84z"/>
	<path d="M4.71,18.54c-0.03,0.11-0.07,0.3-0.15,0.47c-0.28,0.64-0.57,1.28-0.86,1.92c-0.28,0.62-0.74,0.84-1.25,0.63
		c-0.5-0.21-0.69-0.72-0.43-1.33c0.31-0.74,0.64-1.46,1-2.18c0.2-0.41,0.58-0.58,1.03-0.46C4.46,17.71,4.69,18.01,4.71,18.54z"/>
	<path d="M53.88,40.8c-0.56-0.01-1.01-0.51-0.86-1.07c0.22-0.85,0.48-1.68,0.77-2.51c0.18-0.51,0.66-0.7,1.14-0.54
		c0.43,0.14,0.7,0.61,0.57,1.08c-0.22,0.81-0.47,1.6-0.74,2.39C54.6,40.62,54.29,40.81,53.88,40.8z"/>
	<path d="M10.56,10.69c-0.18-0.15-0.55-0.33-0.64-0.6c-0.1-0.27-0.04-0.77,0.15-0.94c0.69-0.62,1.45-1.17,2.22-1.69
		c0.38-0.25,0.8-0.12,1.09,0.24c0.27,0.34,0.34,0.79,0.02,1.06C12.64,9.43,11.81,10,11,10.6C10.93,10.66,10.81,10.65,10.56,10.69z"
		/>
	<path d="M53.1,43.74c-0.11,0.32-0.15,0.52-0.24,0.68c-0.4,0.69-0.81,1.37-1.25,2.04c-0.31,0.47-0.84,0.59-1.27,0.33
		c-0.44-0.27-0.57-0.78-0.28-1.28c0.41-0.71,0.84-1.4,1.28-2.09c0.25-0.39,0.65-0.57,1.06-0.38C52.68,43.19,52.88,43.52,53.1,43.74z
		"/>
	<path d="M56.02,26.11c0,0.61-0.23,0.96-0.71,1.06c-0.5,0.1-0.91-0.12-1.04-0.62c-0.22-0.85-0.4-1.7-0.55-2.57
		c-0.08-0.47,0.27-0.9,0.73-0.98c0.49-0.08,0.88,0.14,1.01,0.6C55.68,24.46,55.85,25.34,56.02,26.11z"/>
	<path d="M37.49,56.93c-0.13,0.13-0.33,0.49-0.62,0.6c-0.78,0.29-1.6,0.49-2.41,0.69c-0.51,0.12-0.96-0.17-1.09-0.65
		c-0.13-0.49,0.09-0.93,0.62-1.1c0.82-0.25,1.64-0.48,2.48-0.67C37.02,55.68,37.51,56.14,37.49,56.93z"/>
</g>
</svg>
