<?xml version="1.0" encoding="utf-8"?>
<!-- Generator: Adobe Illustrator 26.0.1, SVG Export Plug-In . SVG Version: 6.00 Build 0)  -->
<svg version="1.1" id="Layer_1" xmlns="http://www.w3.org/2000/svg" xmlns:xlink="http://www.w3.org/1999/xlink" x="0px" y="0px"
	 viewBox="0 0 60 60" style="enable-background:new 0 0 60 60;" xml:space="preserve">
<style type="text/css">
	.st0{fill:#0D6EFD;}
	.st1{clip-path:url(#SVGID_00000153672637482796826440000003762525002642886290_);fill:#F5FBFF;}
	.st2{clip-path:url(#SVGID_00000153672637482796826440000003762525002642886290_);fill:none;stroke:#E4E5E7;stroke-miterlimit:10;}
	.st3{clip-path:url(#SVGID_00000182521627171457136260000010651092843645788825_);}
	.st4{clip-path:url(#SVGID_00000115480789397933163100000014349555687085198209_);}
	.st5{clip-path:url(#SVGID_00000093161256024510612790000015335355505044252556_);fill:#1A5C96;}
	.st6{clip-path:url(#SVGID_00000034786496048528448570000000113939834664820629_);}
	.st7{fill:#F5FBFF;}
	.st8{fill:none;}
	.st9{fill:#F77B0B;}
	.st10{fill:#FFFFFF;}
	.st11{clip-path:url(#SVGID_00000010306838847628585520000003280484131409996434_);fill:#FFFFFF;}
	.st12{opacity:0.7;clip-path:url(#SVGID_00000010306838847628585520000003280484131409996434_);}
	.st13{clip-path:url(#SVGID_00000111904686761595147620000000385757574535263135_);fill:#FFFFFF;}
	.st14{clip-path:url(#SVGID_00000017517153521620616400000006649903033380497797_);fill:#FFFFFF;}
	.st15{clip-path:url(#SVGID_00000059992825154464438430000014086172709074679732_);fill:#FFFFFF;}
	.st16{clip-path:url(#SVGID_00000075881095317149578790000011073127521435434880_);fill:#FFFFFF;}
	.st17{opacity:0.2;clip-path:url(#SVGID_00000010306838847628585520000003280484131409996434_);}
	.st18{clip-path:url(#SVGID_00000114072443855461033510000017120160177808306603_);}
	.st19{clip-path:url(#SVGID_00000010306838847628585520000003280484131409996434_);fill:#F77B0B;}
	.st20{clip-path:url(#SVGID_00000172432377809656578530000003861840580998638756_);fill:none;stroke:#FFFFFF;stroke-miterlimit:10;}
	.st21{opacity:0.2;clip-path:url(#SVGID_00000089555598282528090360000011806311815301245313_);}
	.st22{clip-path:url(#SVGID_00000009583642245198887860000016326687239848187572_);}
	
		.st23{clip-path:url(#SVGID_00000133527555919771328440000002679935744578902940_);fill:none;stroke:#999999;stroke-width:0.25;stroke-miterlimit:10;}
	.st24{clip-path:url(#SVGID_00000133527555919771328440000002679935744578902940_);fill:#FFFFFF;}
	.st25{clip-path:url(#SVGID_00000131354571475010488160000009195246887056118682_);fill:#FFFFFF;}
	
		.st26{clip-path:url(#SVGID_00000006680545456358880300000001260250516544720279_);fill:none;stroke:#666666;stroke-width:0.5;stroke-miterlimit:10;}
	
		.st27{clip-path:url(#SVGID_00000142881667708935200340000010689846250117722266_);fill:none;stroke:#666666;stroke-width:0.5;stroke-miterlimit:10;}
	
		.st28{clip-path:url(#SVGID_00000148630778186555700010000001459195988892943766_);fill:none;stroke:#666666;stroke-width:0.5;stroke-miterlimit:10;}
	
		.st29{clip-path:url(#SVGID_00000065765594161508840930000008156674244483817643_);fill:none;stroke:#666666;stroke-width:0.5;stroke-miterlimit:10;}
	
		.st30{clip-path:url(#SVGID_00000166652655615838988910000001647973729531546518_);fill:none;stroke:#666666;stroke-width:0.5;stroke-miterlimit:10;}
	
		.st31{clip-path:url(#SVGID_00000158018590409384259160000008674912707162083007_);fill:none;stroke:#666666;stroke-width:0.5;stroke-miterlimit:10;}
	.st32{clip-path:url(#SVGID_00000158018590409384259160000008674912707162083007_);fill:#FFFFFF;}
	.st33{clip-path:url(#SVGID_00000158018590409384259160000008674912707162083007_);fill:#F77B0B;}
	.st34{filter:url(#Adobe_OpacityMaskFilter);}
	.st35{enable-background:new    ;}
	.st36{clip-path:url(#SVGID_00000158018590409384259160000008674912707162083007_);}
	
		.st37{opacity:0.3;clip-path:url(#SVGID_00000158018590409384259160000008674912707162083007_);mask:url(#SVGID_00000052815791250781545790000005760103136386160814_);}
	.st38{clip-path:url(#SVGID_00000134246310926416326270000007638375119483474352_);}
	.st39{clip-path:url(#SVGID_00000127006463708872593540000012658621226312462755_);}
	.st40{opacity:0.3;clip-path:url(#SVGID_00000114055201100378380890000008420081054429067955_);}
	.st41{clip-path:url(#SVGID_00000015328532612028032960000006487373322233605038_);fill:#FFFFFF;}
	.st42{clip-path:url(#SVGID_00000114055201100378380890000008420081054429067955_);fill:#FFFFFF;}
	.st43{clip-path:url(#SVGID_00000154407929374393060250000010082574144595079305_);fill:#FFFFFF;}
	.st44{clip-path:url(#SVGID_00000056395017692914985020000004734475941457319565_);}
	.st45{opacity:0.2;clip-path:url(#SVGID_00000014615069814293454750000003997772952663222948_);}
	.st46{clip-path:url(#SVGID_00000069374503913678462020000001804799701947442600_);}
	.st47{clip-path:url(#SVGID_00000014615069814293454750000003997772952663222948_);fill:#F77B0B;}
	.st48{opacity:0.2;clip-path:url(#SVGID_00000016042028210151744020000006702526686272122784_);}
	.st49{clip-path:url(#SVGID_00000044859346079180755820000015476823164112290179_);}
	.st50{clip-path:url(#SVGID_00000016042028210151744020000006702526686272122784_);fill:#F77B0B;}
	.st51{clip-path:url(#SVGID_00000159464793799055313890000001549534757963977622_);fill:#FFFFFF;}
	.st52{opacity:0.2;clip-path:url(#SVGID_00000021099458389950184210000010110633483775615918_);}
	.st53{clip-path:url(#SVGID_00000016060049147960506810000005906074655312201088_);}
	.st54{clip-path:url(#SVGID_00000021099458389950184210000010110633483775615918_);fill:#F77B0B;}
	.st55{clip-path:url(#SVGID_00000105409336830520138740000003082977913900540073_);fill:#FFFFFF;}
	.st56{clip-path:url(#SVGID_00000040568725270520897000000002031914622072578986_);}
	.st57{clip-path:url(#SVGID_00000057132846408540907380000008007196976262167688_);}
	
		.st58{clip-path:url(#SVGID_00000090257954635862333300000012722927165104001679_);fill:none;stroke:#999999;stroke-width:0.25;stroke-miterlimit:10;}
	.st59{clip-path:url(#SVGID_00000067216004334907450060000014699637601465263507_);}
	.st60{clip-path:url(#SVGID_00000154404012912342436340000002835528071288858040_);}
	.st61{clip-path:url(#SVGID_00000000203347889933003730000002033677163014366127_);}
	
		.st62{clip-path:url(#SVGID_00000043437895937034194520000010650568646535556515_);fill:none;stroke:#999999;stroke-width:0.25;stroke-miterlimit:10;}
	.st63{clip-path:url(#SVGID_00000088815650976307469580000008026503738000825266_);}
	.st64{clip-path:url(#SVGID_00000145021122599933942330000004085632190876422575_);}
	
		.st65{clip-path:url(#SVGID_00000117656248639061926670000000807765559552759688_);fill:none;stroke:#999999;stroke-width:0.25;stroke-miterlimit:10;}
	.st66{clip-path:url(#SVGID_00000067197939726603387790000016606874673528434091_);}
	.st67{clip-path:url(#SVGID_00000060733841655628859990000001551127088770832007_);}
	.st68{clip-path:url(#SVGID_00000053515531133219571620000006926325747220766620_);}
	
		.st69{clip-path:url(#SVGID_00000086666063098613335060000011322911213055298718_);fill:none;stroke:#999999;stroke-width:0.25;stroke-miterlimit:10;}
	.st70{clip-path:url(#SVGID_00000013184963592243555670000007076395716884236431_);}
	.st71{clip-path:url(#SVGID_00000105406200901721867080000003232399889069159559_);}
	.st72{clip-path:url(#SVGID_00000172419230773976585060000001517279148643129738_);}
	
		.st73{clip-path:url(#SVGID_00000016046820244608451660000000824193785187836821_);fill:none;stroke:#999999;stroke-width:0.25;stroke-miterlimit:10;}
	.st74{clip-path:url(#SVGID_00000148660094257288011180000008619911337487713214_);}
	.st75{clip-path:url(#SVGID_00000152230535505098010510000003339936496681897089_);}
	.st76{opacity:0.1;clip-path:url(#SVGID_00000145761536623551915260000014996395968869877138_);}
	.st77{clip-path:url(#SVGID_00000178898555822289109970000000853708071046486973_);}
	.st78{clip-path:url(#SVGID_00000145761536623551915260000014996395968869877138_);fill:#FFFFFF;}
	.st79{clip-path:url(#SVGID_00000145761536623551915260000014996395968869877138_);}
	.st80{clip-path:url(#SVGID_00000096045064782043882710000003944791004930070175_);}
	.st81{clip-path:url(#SVGID_00000102505952760719406070000004235555137137980051_);}
	
		.st82{clip-path:url(#SVGID_00000163752268875772554370000017088052991319972263_);fill:none;stroke:#999999;stroke-width:0.25;stroke-miterlimit:10;}
	.st83{clip-path:url(#SVGID_00000147179276540149168430000010231103414352732043_);}
	.st84{clip-path:url(#SVGID_00000103256584847829834210000014085644022107056572_);}
	.st85{clip-path:url(#SVGID_00000160900318517096523440000006060576166400144036_);}
	.st86{fill:none;stroke:#999999;stroke-width:0.25;stroke-miterlimit:10;}
	.st87{clip-path:url(#SVGID_00000026859790349255816510000014104501858664912815_);}
	.st88{clip-path:url(#SVGID_00000075878347942818232020000012299974138251882156_);}
	
		.st89{clip-path:url(#SVGID_00000179615837454185896670000001779812009363957659_);fill:none;stroke:#999999;stroke-width:0.25;stroke-miterlimit:10;}
	.st90{clip-path:url(#SVGID_00000067946807399734808030000013106356873380685222_);}
	.st91{clip-path:url(#SVGID_00000082355854760176958860000015353679325719528099_);}
	.st92{clip-path:url(#SVGID_00000002352139748788234110000007419056037211961782_);}
	
		.st93{clip-path:url(#SVGID_00000078044321124182938000000010868450476259498672_);fill:none;stroke:#999999;stroke-width:0.25;stroke-miterlimit:10;}
	.st94{clip-path:url(#SVGID_00000161589347821039613490000015897043947088836535_);}
	.st95{clip-path:url(#SVGID_00000119812514013217944340000006262701071247431871_);}
	.st96{clip-path:url(#SVGID_00000114769636773034457770000007743632159512767147_);}
	.st97{clip-path:url(#SVGID_00000022542839479877338590000002147802855762269827_);}
	.st98{clip-path:url(#SVGID_00000142868506922781375990000001840854368174881431_);}
	.st99{opacity:0.1;clip-path:url(#SVGID_00000038402316186963589140000010243434344360729218_);}
	.st100{clip-path:url(#SVGID_00000089551252354137448610000003297527641032092587_);}
	.st101{clip-path:url(#SVGID_00000038402316186963589140000010243434344360729218_);fill:#FFFFFF;}
	.st102{clip-path:url(#SVGID_00000038402316186963589140000010243434344360729218_);}
	.st103{clip-path:url(#SVGID_00000031179334679712801190000000190715275962911661_);}
	.st104{clip-path:url(#SVGID_00000137101684898436238450000000426131669801431444_);}
	
		.st105{clip-path:url(#SVGID_00000070798835802545532260000018120506682441194920_);fill:none;stroke:#999999;stroke-width:0.25;stroke-miterlimit:10;}
	.st106{clip-path:url(#SVGID_00000134956030319452525930000015748346097667731860_);}
	.st107{clip-path:url(#SVGID_00000072245580521233907210000000589771894568008856_);}
	.st108{clip-path:url(#SVGID_00000062880847611911694910000013766652560653881023_);}
	
		.st109{clip-path:url(#SVGID_00000149351270048017119050000007104715052284918441_);fill:none;stroke:#999999;stroke-width:0.25;stroke-miterlimit:10;}
	.st110{clip-path:url(#SVGID_00000158732034682143954450000005036608085235085488_);}
	.st111{clip-path:url(#SVGID_00000178194752137198804580000004493740996212954556_);}
	
		.st112{clip-path:url(#SVGID_00000159468988646367526470000010074885988842794163_);fill:none;stroke:#999999;stroke-width:0.25;stroke-miterlimit:10;}
	.st113{clip-path:url(#SVGID_00000067236261106842045300000016537776461744350898_);}
	.st114{clip-path:url(#SVGID_00000106842024018270902680000008852684421971964578_);}
	
		.st115{clip-path:url(#SVGID_00000003068405687131686460000016255082053075019667_);fill:none;stroke:#999999;stroke-width:0.25;stroke-miterlimit:10;}
	.st116{clip-path:url(#SVGID_00000128450369656808359910000017207447083277437075_);}
	.st117{clip-path:url(#SVGID_00000012430682439008098130000010822899012593889930_);}
	.st118{clip-path:url(#SVGID_00000160151358558998541360000007615215516772574354_);}
	
		.st119{clip-path:url(#SVGID_00000160155067440986949670000002059019531721812364_);fill:none;stroke:#999999;stroke-width:0.25;stroke-miterlimit:10;}
	.st120{clip-path:url(#SVGID_00000134219891159456307270000001308458164759806102_);}
	.st121{clip-path:url(#SVGID_00000083057532670940435340000015904373840922133663_);}
	.st122{clip-path:url(#SVGID_00000034799334741040421230000005497141126993075585_);}
	
		.st123{clip-path:url(#SVGID_00000067196801561345963960000001608309326731532696_);fill:none;stroke:#999999;stroke-width:0.25;stroke-miterlimit:10;}
	.st124{clip-path:url(#SVGID_00000036932426563181517920000009491783790525374133_);}
	.st125{clip-path:url(#SVGID_00000020386982490550599220000009122017883828972729_);}
	
		.st126{clip-path:url(#SVGID_00000004525092525984604430000011005101411492102552_);fill:none;stroke:#999999;stroke-width:0.25;stroke-miterlimit:10;}
	.st127{clip-path:url(#SVGID_00000014608491277615162020000001684866571012492462_);}
	
		.st128{clip-path:url(#SVGID_00000175296263392106449860000009875072027199426982_);fill:none;stroke:#999999;stroke-width:0.25;stroke-miterlimit:10;}
	.st129{clip-path:url(#SVGID_00000035488912821007661660000006639919568243685813_);}
	.st130{clip-path:url(#SVGID_00000106145829011588056540000005887760250066597543_);}
	
		.st131{clip-path:url(#SVGID_00000041293009602052445140000013607756725762982054_);fill:none;stroke:#999999;stroke-width:0.25;stroke-miterlimit:10;}
	.st132{clip-path:url(#SVGID_00000129895049367841149810000005047254223212469644_);}
	.st133{clip-path:url(#SVGID_00000125594534811534595340000003432779464333247372_);}
	.st134{clip-path:url(#SVGID_00000105426076803520172610000009233361401570391686_);}
	
		.st135{clip-path:url(#SVGID_00000143614386502220639220000015879046980079709867_);fill:none;stroke:#999999;stroke-width:0.25;stroke-miterlimit:10;}
	.st136{clip-path:url(#SVGID_00000072961354910776749700000008718743970734814894_);}
	.st137{clip-path:url(#SVGID_00000017513592154349933170000009940421965299756725_);}
	
		.st138{clip-path:url(#SVGID_00000111903137128350530360000006740426167461783471_);fill:none;stroke:#999999;stroke-width:0.25;stroke-miterlimit:10;}
	.st139{clip-path:url(#SVGID_00000031183572446722499110000011010769214568404660_);}
	.st140{clip-path:url(#SVGID_00000130646472530489018610000010175070698830466971_);}
	.st141{clip-path:url(#SVGID_00000178204322836484350680000016848220363776923285_);}
	
		.st142{clip-path:url(#SVGID_00000107588240590232258910000008423068806666961299_);fill:none;stroke:#999999;stroke-width:0.25;stroke-miterlimit:10;}
	.st143{clip-path:url(#SVGID_00000137822123837201497070000002698591850268351894_);}
	.st144{clip-path:url(#SVGID_00000118386213152590757780000014818594479998942100_);}
	
		.st145{clip-path:url(#SVGID_00000148654484136441939930000016106173661912983721_);fill:none;stroke:#999999;stroke-width:0.25;stroke-miterlimit:10;}
	.st146{clip-path:url(#SVGID_00000013905979677431363560000015931272629269656240_);}
	.st147{clip-path:url(#SVGID_00000046322360057939897690000002438585683846849160_);}
	
		.st148{clip-path:url(#SVGID_00000024722922864678126390000005422579797680160158_);fill:none;stroke:#999999;stroke-width:0.25;stroke-miterlimit:10;}
	.st149{clip-path:url(#SVGID_00000047021464251681493320000017734917802107464368_);}
	.st150{clip-path:url(#SVGID_00000051364986171803700390000001128693690350482076_);}
	.st151{clip-path:url(#SVGID_00000074415021024729065290000006591317126724330634_);}
	
		.st152{clip-path:url(#SVGID_00000144295572246903820400000016200755977054060986_);fill:none;stroke:#999999;stroke-width:0.25;stroke-miterlimit:10;}
	.st153{clip-path:url(#SVGID_00000058571793014823280010000006724273417764734359_);}
	.st154{clip-path:url(#SVGID_00000102520195136114956660000016210540307845959323_);}
	.st155{clip-path:url(#SVGID_00000029733958499338173350000007768022413802464155_);}
	.st156{clip-path:url(#SVGID_00000181807953099894572980000005951131808860902284_);}
	.st157{clip-path:url(#SVGID_00000050663781267712998820000008771575010827888530_);}
	
		.st158{clip-path:url(#SVGID_00000118397445049325523550000008317245030556751762_);fill:none;stroke:#000000;stroke-miterlimit:10;}
	.st159{clip-path:url(#SVGID_00000111193659942513783310000001064696803651869119_);fill:#0D6EFD;}
	.st160{clip-path:url(#SVGID_00000065073349139626380080000017154228238529985682_);}
	.st161{clip-path:url(#SVGID_00000139285738540019048750000012336364035964169607_);}
	.st162{clip-path:url(#SVGID_00000013193612049815229270000012246368413412008326_);}
	.st163{fill:#666666;}
	
		.st164{clip-path:url(#SVGID_00000051368963005636322350000007849505339538327217_);fill:none;stroke:#999999;stroke-width:0.25;stroke-miterlimit:10;}
	.st165{clip-path:url(#SVGID_00000170957373744334453730000007515065297453737344_);}
	.st166{clip-path:url(#SVGID_00000023981528172400529770000015211335172101813141_);}
	.st167{clip-path:url(#SVGID_00000183218954626292701180000012179868762926000568_);}
	.st168{clip-path:url(#SVGID_00000000212000924929283880000017587447622077001888_);fill:#FCFCFC;}
	.st169{clip-path:url(#SVGID_00000170979437835121605290000006313186151152258732_);}
	.st170{clip-path:url(#SVGID_00000158741844128140169220000002662429016374629544_);fill:#F5FBFF;}
	.st171{clip-path:url(#SVGID_00000032612163297042138290000006082621081836043937_);fill:#F77B0B;}
	.st172{clip-path:url(#SVGID_00000032612163297042138290000006082621081836043937_);fill:#FFFFFF;}
	
		.st173{clip-path:url(#SVGID_00000047059635355660143980000014260485546450197417_);fill:none;stroke:#999999;stroke-width:0.25;stroke-miterlimit:10;}
	.st174{clip-path:url(#SVGID_00000155847606568134000620000010188325735875767687_);}
	.st175{fill:none;stroke:#000000;stroke-miterlimit:10;}
	.st176{clip-path:url(#SVGID_00000177453022604362926280000001648643928810080143_);}
	.st177{opacity:0.2;clip-path:url(#SVGID_00000142858728095660032100000018342192671117847980_);}
	.st178{clip-path:url(#SVGID_00000086687772583637435240000007497137536441472904_);}
	.st179{clip-path:url(#SVGID_00000142858728095660032100000018342192671117847980_);fill:#FFFFFF;}
	.st180{clip-path:url(#SVGID_00000131334843928370237960000006914612434606679479_);}
	.st181{clip-path:url(#SVGID_00000016767010523871866040000001677920908359552393_);}
	
		.st182{clip-path:url(#SVGID_00000114787871575137231200000007806633210881720227_);fill:none;stroke:#999999;stroke-width:0.25;stroke-miterlimit:10;}
	
		.st183{clip-path:url(#SVGID_00000091728573297360133600000005114967681711094168_);fill:none;stroke:#999999;stroke-width:0.25;stroke-miterlimit:10;}
	
		.st184{clip-path:url(#SVGID_00000046327953213841840490000005914300222943736225_);fill:none;stroke:#2490D0;stroke-width:0.586;stroke-miterlimit:10;}
	
		.st185{clip-path:url(#SVGID_00000046327953213841840490000005914300222943736225_);fill:none;stroke:#999999;stroke-width:0.25;stroke-miterlimit:10;}
	.st186{clip-path:url(#SVGID_00000097499173492357705380000006830474668103739041_);}
	.st187{clip-path:url(#SVGID_00000175295966316370343450000011788597558711254953_);}
	.st188{clip-path:url(#SVGID_00000001629086435386325320000000381844739251381919_);}
	.st189{clip-path:url(#SVGID_00000076589250730891725930000017541198179794260656_);}
	.st190{clip-path:url(#SVGID_00000131339112915641143790000016202456446418870912_);}
	
		.st191{clip-path:url(#SVGID_00000160881874183174129640000001631710904586303873_);fill:none;stroke:#999999;stroke-width:0.25;stroke-miterlimit:10;}
	.st192{clip-path:url(#SVGID_00000021082598364196380560000004557287894513309843_);}
	.st193{clip-path:url(#SVGID_00000084512966276306193250000007457483592181243066_);}
	.st194{clip-path:url(#SVGID_00000149353535627776059430000014102905184285787015_);fill:#0D6EFD;}
	.st195{clip-path:url(#SVGID_00000011010774211113509640000014113715953367901849_);}
	.st196{clip-path:url(#SVGID_00000105387568011872910440000000516609684584229251_);}
	.st197{clip-path:url(#SVGID_00000088849860795647910030000003379769018101468587_);}
	.st198{clip-path:url(#SVGID_00000088849960002600394200000004596801358804499389_);}
	.st199{clip-path:url(#SVGID_00000019659095109929702310000006140611443086830490_);}
	.st200{clip-path:url(#SVGID_00000167355355158402453070000010245520041886187159_);}
	.st201{clip-path:url(#SVGID_00000172432760575841732040000014641159594490056337_);fill:#F5FBFF;}
	.st202{clip-path:url(#SVGID_00000079463778038027233690000001421695861053046446_);fill:#F77B0B;}
	.st203{clip-path:url(#SVGID_00000079463778038027233690000001421695861053046446_);fill:#FFFFFF;}
	
		.st204{clip-path:url(#SVGID_00000042712439883007809430000011403365819088370847_);fill:none;stroke:#999999;stroke-width:0.25;stroke-miterlimit:10;}
	.st205{clip-path:url(#SVGID_00000183241983725677822490000003434975794163430794_);}
	.st206{clip-path:url(#SVGID_00000013159613779913899040000017760656764660299682_);fill:#0D6EFD;}
	.st207{clip-path:url(#SVGID_00000063610024123348093750000007542189417783490205_);}
	.st208{clip-path:url(#SVGID_00000178194109925649246940000006269077451665852311_);}
	.st209{clip-path:url(#SVGID_00000079486700320271471930000014086646582786871968_);}
	
		.st210{clip-path:url(#SVGID_00000014601044297554682410000016344919366850631049_);fill:none;stroke:#999999;stroke-width:0.25;stroke-miterlimit:10;}
	.st211{clip-path:url(#SVGID_00000181066192890666470810000004923642264656317343_);}
	.st212{clip-path:url(#SVGID_00000083050835219240643510000011452793417388003457_);}
	
		.st213{clip-path:url(#SVGID_00000094583020885057456420000009033311513264836509_);fill:none;stroke:#999999;stroke-width:0.25;stroke-miterlimit:10;}
	
		.st214{clip-path:url(#SVGID_00000130623500037995476730000005367437598415510430_);fill:none;stroke:#999999;stroke-width:0.25;stroke-miterlimit:10;}
	.st215{clip-path:url(#SVGID_00000130623500037995476730000005367437598415510430_);fill:#1A5C96;}
	.st216{clip-path:url(#SVGID_00000130623500037995476730000005367437598415510430_);fill:#FFFFFF;}
	.st217{clip-path:url(#SVGID_00000166672897263500232140000013782480627851180980_);fill:#FFFFFF;}
	
		.st218{clip-path:url(#SVGID_00000009550900639256444720000013512938673148607915_);fill:none;stroke:#666666;stroke-width:0.5;stroke-miterlimit:10;}
	
		.st219{clip-path:url(#SVGID_00000109012136953494414160000008870377252030399929_);fill:none;stroke:#666666;stroke-width:0.5;stroke-miterlimit:10;}
	
		.st220{clip-path:url(#SVGID_00000104703796542594752750000005900436534287888277_);fill:none;stroke:#666666;stroke-width:0.5;stroke-miterlimit:10;}
	
		.st221{clip-path:url(#SVGID_00000113316542728764231740000003844827691009291940_);fill:none;stroke:#666666;stroke-width:0.5;stroke-miterlimit:10;}
	
		.st222{clip-path:url(#SVGID_00000029035929575253687050000014810838123421698485_);fill:none;stroke:#666666;stroke-width:0.5;stroke-miterlimit:10;}
	
		.st223{clip-path:url(#SVGID_00000064352630491002962050000011407702013133629334_);fill:none;stroke:#666666;stroke-width:0.5;stroke-miterlimit:10;}
	.st224{clip-path:url(#SVGID_00000078039186429409160380000000963063515901951135_);}
	.st225{clip-path:url(#SVGID_00000072993662947560530030000004150147535363676290_);}
	.st226{opacity:0.2;clip-path:url(#SVGID_00000005977321201098642620000002817613430331950500_);}
	.st227{clip-path:url(#SVGID_00000147924089335764207130000015810724126797067651_);}
	.st228{clip-path:url(#SVGID_00000005977321201098642620000002817613430331950500_);fill:#FFFFFF;}
	.st229{clip-path:url(#SVGID_00000116932241168183916130000004168272450998896812_);}
	.st230{clip-path:url(#SVGID_00000005977321201098642620000002817613430331950500_);}
	.st231{clip-path:url(#SVGID_00000155845439754701134840000006891741187305755019_);}
	
		.st232{clip-path:url(#SVGID_00000159432372103827745200000001311947294452877709_);fill:none;stroke:#999999;stroke-width:0.25;stroke-miterlimit:10;}
	.st233{clip-path:url(#SVGID_00000087413864951728921580000012946521465215020201_);}
	.st234{clip-path:url(#SVGID_00000121961971115130644820000008096485726913488319_);}
	.st235{clip-path:url(#SVGID_00000152962324212599982920000009872535483648548231_);}
	
		.st236{clip-path:url(#SVGID_00000049186842809329482240000017182696132813095861_);fill:none;stroke:#999999;stroke-width:0.25;stroke-miterlimit:10;}
	.st237{clip-path:url(#SVGID_00000088131385416468051540000005245512226891489702_);}
	.st238{clip-path:url(#SVGID_00000082341633515075552390000007480551385464953224_);}
	
		.st239{clip-path:url(#SVGID_00000166669496239851210650000012171050127733187223_);fill:none;stroke:#999999;stroke-width:0.25;stroke-miterlimit:10;}
	.st240{clip-path:url(#SVGID_00000171678469483467416050000004612990350564367498_);}
	.st241{clip-path:url(#SVGID_00000078727566819657685450000008965512120061757323_);}
	.st242{clip-path:url(#SVGID_00000129167482886257374430000011655756149508652949_);}
	
		.st243{clip-path:url(#SVGID_00000077303501272441471900000018075195383901854614_);fill:none;stroke:#999999;stroke-width:0.25;stroke-miterlimit:10;}
	.st244{clip-path:url(#SVGID_00000153697877166482842300000014887633312151580814_);}
	.st245{clip-path:url(#SVGID_00000158730991697741276640000004362970827114896014_);}
	
		.st246{clip-path:url(#SVGID_00000150082562056226150440000010287497669515055013_);fill:none;stroke:#999999;stroke-width:0.25;stroke-miterlimit:10;}
	.st247{clip-path:url(#SVGID_00000061448962328829965810000014259208596787092096_);}
	.st248{clip-path:url(#SVGID_00000116943462687297269420000001403057214344274076_);}
	
		.st249{clip-path:url(#SVGID_00000156587299596202444100000000837002265081745819_);fill:none;stroke:#999999;stroke-width:0.25;stroke-miterlimit:10;}
	.st250{clip-path:url(#SVGID_00000085933908434620491360000009301717734602974603_);}
	
		.st251{clip-path:url(#SVGID_00000003091661734411976170000011590202787314852791_);fill:none;stroke:#999999;stroke-width:0.25;stroke-miterlimit:10;}
	.st252{clip-path:url(#SVGID_00000011747849415097263660000018337772901303009681_);}
	.st253{clip-path:url(#SVGID_00000155843445614018871360000008652320206749883323_);}
	.st254{clip-path:url(#SVGID_00000038409419968933780950000001258631571314369423_);}
	
		.st255{clip-path:url(#SVGID_00000142856776460849355720000017609933666266907573_);fill:none;stroke:#999999;stroke-width:0.25;stroke-miterlimit:10;}
	.st256{clip-path:url(#SVGID_00000158014852280404743540000010255364819345988770_);}
	.st257{clip-path:url(#SVGID_00000114760448488454144990000013820798839833192358_);}
	
		.st258{clip-path:url(#SVGID_00000062182453128457766340000009302952358378013603_);fill:none;stroke:#999999;stroke-width:0.25;stroke-miterlimit:10;}
	.st259{clip-path:url(#SVGID_00000119809825828755711720000006799878812233497752_);}
	.st260{clip-path:url(#SVGID_00000090975172474224888420000006448067287670998964_);}
	.st261{clip-path:url(#SVGID_00000154426908921266570980000016817216163622347187_);}
	
		.st262{clip-path:url(#SVGID_00000065055595699950991860000013610614080270433928_);fill:none;stroke:#999999;stroke-width:0.25;stroke-miterlimit:10;}
	.st263{clip-path:url(#SVGID_00000098940995826693341380000000299197812839545257_);}
	.st264{clip-path:url(#SVGID_00000039824371634252528980000014755510303676466310_);}
	
		.st265{clip-path:url(#SVGID_00000086671108252118762810000005502019962897158840_);fill:none;stroke:#999999;stroke-width:0.25;stroke-miterlimit:10;}
	.st266{clip-path:url(#SVGID_00000104670221781363028660000015880190857627785101_);}
	.st267{clip-path:url(#SVGID_00000126322299747527283550000008884260946446597014_);}
	.st268{clip-path:url(#SVGID_00000093873314962980324570000012905994493957476744_);}
	
		.st269{clip-path:url(#SVGID_00000178884119232142056430000016336361987909889158_);fill:none;stroke:#999999;stroke-width:0.25;stroke-miterlimit:10;}
	.st270{clip-path:url(#SVGID_00000131328559706491095940000012751289316640524726_);}
	.st271{clip-path:url(#SVGID_00000067227546664232790060000003061221204132197557_);fill:#F77B0B;}
	.st272{clip-path:url(#SVGID_00000174566064006353276420000009106976715935126718_);}
	
		.st273{clip-path:url(#SVGID_00000012439837088703829590000013381872557196258490_);fill:none;stroke:#999999;stroke-width:0.25;stroke-miterlimit:10;}
	.st274{clip-path:url(#SVGID_00000019645990974827858880000003482969393560991142_);}
	.st275{clip-path:url(#SVGID_00000121272931291964697610000010631868697853942941_);}
	.st276{clip-path:url(#SVGID_00000114760616888725362480000004764369968293209738_);}
	
		.st277{clip-path:url(#SVGID_00000069360413695654314300000007945275150056125883_);fill:none;stroke:#999999;stroke-width:0.25;stroke-miterlimit:10;}
	.st278{clip-path:url(#SVGID_00000182525913161037020220000008379044422291749818_);}
	.st279{clip-path:url(#SVGID_00000168096392946103788240000008235310531361321133_);}
	
		.st280{clip-path:url(#SVGID_00000176005053951568204730000011124026213253767582_);fill:none;stroke:#999999;stroke-width:0.25;stroke-miterlimit:10;}
	.st281{clip-path:url(#SVGID_00000040569439919124059470000006350923663298541198_);}
	.st282{clip-path:url(#SVGID_00000035489292509310251310000012459380204919753881_);}
	.st283{clip-path:url(#SVGID_00000150089647432535139930000003214875722369823918_);}
	
		.st284{clip-path:url(#SVGID_00000049921874275949115020000006172847082960201654_);fill:none;stroke:#999999;stroke-width:0.25;stroke-miterlimit:10;}
	.st285{clip-path:url(#SVGID_00000061465238657397509320000011033207613561574589_);}
	.st286{clip-path:url(#SVGID_00000163037588889617227800000009664559754881398174_);fill:#F77B0B;}
	.st287{clip-path:url(#SVGID_00000023261757940975322040000018320899074644628388_);fill:#F77B0B;}
	.st288{clip-path:url(#SVGID_00000121260964316396305380000001731848115525172881_);fill:#F77B0B;}
	.st289{fill:#F4F4F4;stroke:#999999;stroke-width:0.25;stroke-miterlimit:10;}
	.st290{fill:#1A5C96;}
	.st291{clip-path:url(#SVGID_00000036941281774815845350000014865817760533355694_);}
	.st292{clip-path:url(#SVGID_00000147201009059642073990000003344998918730042762_);fill:#F5FBFF;}
	.st293{clip-path:url(#SVGID_00000134965818429887291780000000632521496100245900_);fill:#F77B0B;}
	.st294{clip-path:url(#SVGID_00000134965818429887291780000000632521496100245900_);fill:#FFFFFF;}
	
		.st295{clip-path:url(#SVGID_00000179614735998376596930000013583760308697685168_);fill:none;stroke:#999999;stroke-width:0.25;stroke-miterlimit:10;}
	.st296{clip-path:url(#SVGID_00000019647258051518615640000010346461436992478084_);}
	.st297{clip-path:url(#SVGID_00000051369867738078369350000002192981032615859586_);fill:#0D6EFD;}
	.st298{clip-path:url(#SVGID_00000062902721247059039230000018108518871368451237_);}
	.st299{clip-path:url(#SVGID_00000083058423031030787190000015123182828515719085_);}
	.st300{clip-path:url(#SVGID_00000072265363172540363980000000018725753934452641_);}
	
		.st301{clip-path:url(#SVGID_00000147934570805809299900000004318685377675559046_);fill:none;stroke:#999999;stroke-width:0.25;stroke-miterlimit:10;}
	.st302{clip-path:url(#SVGID_00000063611693247448445910000009890174427294916772_);}
	.st303{clip-path:url(#SVGID_00000165213486653844019110000002775841050345429933_);}
	
		.st304{clip-path:url(#SVGID_00000129928381505234278700000001640182809699936664_);fill:none;stroke:#999999;stroke-width:0.25;stroke-miterlimit:10;}
	.st305{clip-path:url(#SVGID_00000089536835688151998700000001702977028126835338_);fill:#FFFFFF;}
	
		.st306{clip-path:url(#SVGID_00000016046383700739292090000003306907180962467764_);fill:none;stroke:#666666;stroke-width:0.5;stroke-miterlimit:10;}
	
		.st307{clip-path:url(#SVGID_00000005263386674761318000000016341870107323447704_);fill:none;stroke:#666666;stroke-width:0.5;stroke-miterlimit:10;}
	
		.st308{clip-path:url(#SVGID_00000005980698374903220070000014737522089114256024_);fill:none;stroke:#666666;stroke-width:0.5;stroke-miterlimit:10;}
	
		.st309{clip-path:url(#SVGID_00000155825918314685893970000018103619411078523552_);fill:none;stroke:#666666;stroke-width:0.5;stroke-miterlimit:10;}
	
		.st310{clip-path:url(#SVGID_00000165918135117825316710000005861754438543299724_);fill:none;stroke:#666666;stroke-width:0.5;stroke-miterlimit:10;}
	
		.st311{clip-path:url(#SVGID_00000160190461672909827000000009554265387986470560_);fill:none;stroke:#666666;stroke-width:0.5;stroke-miterlimit:10;}
	.st312{clip-path:url(#SVGID_00000071520808343651178070000003095634066193818513_);}
	.st313{opacity:0.2;clip-path:url(#SVGID_00000125573181423915664640000011916383147472766384_);}
	.st314{clip-path:url(#SVGID_00000078032013001592356290000006748138019267843233_);}
	.st315{clip-path:url(#SVGID_00000125573181423915664640000011916383147472766384_);fill:#FFFFFF;}
	.st316{clip-path:url(#SVGID_00000165935986683683831140000011712127424612387478_);}
	.st317{clip-path:url(#SVGID_00000125573181423915664640000011916383147472766384_);}
	.st318{clip-path:url(#SVGID_00000035503502502133379380000011767330117914633605_);}
	
		.st319{clip-path:url(#SVGID_00000156553252947617632110000008555898013215481756_);fill:none;stroke:#999999;stroke-width:0.25;stroke-miterlimit:10;}
	.st320{clip-path:url(#SVGID_00000013889914329640138000000001206685240334762641_);}
	.st321{clip-path:url(#SVGID_00000152971400840550614670000012779942357847437749_);}
	.st322{clip-path:url(#SVGID_00000067941773306132905190000004924755427157693324_);}
	
		.st323{clip-path:url(#SVGID_00000097502306191588541750000000509236694864153772_);fill:none;stroke:#999999;stroke-width:0.25;stroke-miterlimit:10;}
	.st324{clip-path:url(#SVGID_00000171704368723545999950000007255861785318166145_);}
	.st325{clip-path:url(#SVGID_00000036969268515804988460000002624861360053655686_);}
	
		.st326{clip-path:url(#SVGID_00000035524287381111348980000005634429203229263499_);fill:none;stroke:#999999;stroke-width:0.25;stroke-miterlimit:10;}
	.st327{clip-path:url(#SVGID_00000096020268121958021110000012551757754467458984_);}
	.st328{clip-path:url(#SVGID_00000178199758181955945830000002939662901415816593_);}
	.st329{clip-path:url(#SVGID_00000158731136008691721840000011048556017175841688_);}
	
		.st330{clip-path:url(#SVGID_00000150824404075069769410000014940594619476779412_);fill:none;stroke:#999999;stroke-width:0.25;stroke-miterlimit:10;}
	.st331{clip-path:url(#SVGID_00000016034737421912115800000005486933348356584600_);}
	.st332{clip-path:url(#SVGID_00000126301935282000821020000000480923985847411635_);}
	
		.st333{clip-path:url(#SVGID_00000070820290954913410580000001985113796404879271_);fill:none;stroke:#999999;stroke-width:0.25;stroke-miterlimit:10;}
	.st334{clip-path:url(#SVGID_00000115486145937911249010000003766812804440801669_);}
	.st335{clip-path:url(#SVGID_00000029735559774158595540000014514088626264540602_);}
	
		.st336{clip-path:url(#SVGID_00000090264647767060922840000014552093715110886539_);fill:none;stroke:#999999;stroke-width:0.25;stroke-miterlimit:10;}
	.st337{clip-path:url(#SVGID_00000132774955181084304760000015086742863250849440_);}
	
		.st338{clip-path:url(#SVGID_00000165219967277484139690000013845492689650769827_);fill:none;stroke:#999999;stroke-width:0.25;stroke-miterlimit:10;}
	.st339{clip-path:url(#SVGID_00000181047640029034788960000002806082111117098915_);}
	.st340{clip-path:url(#SVGID_00000155866029208185910160000012511378782583811204_);}
	.st341{clip-path:url(#SVGID_00000058547705242039331700000005860518252073298367_);}
	
		.st342{clip-path:url(#SVGID_00000008836643151877124110000018419344568395237253_);fill:none;stroke:#999999;stroke-width:0.25;stroke-miterlimit:10;}
	.st343{clip-path:url(#SVGID_00000152262031835962510260000010310104170661977000_);}
	.st344{clip-path:url(#SVGID_00000063614288922002407640000001442140906650519477_);}
	
		.st345{clip-path:url(#SVGID_00000042008205191994567400000004882691347267018158_);fill:none;stroke:#999999;stroke-width:0.25;stroke-miterlimit:10;}
	.st346{clip-path:url(#SVGID_00000049912180871773812090000000800089181849705872_);}
	.st347{clip-path:url(#SVGID_00000175296117692339333090000012614159510854319538_);}
	.st348{clip-path:url(#SVGID_00000003086578211625336870000015470808973814718624_);}
	
		.st349{clip-path:url(#SVGID_00000094576663898788125040000017187022651607991171_);fill:none;stroke:#999999;stroke-width:0.25;stroke-miterlimit:10;}
	.st350{clip-path:url(#SVGID_00000150098017743483713400000007773710134019348131_);}
	.st351{clip-path:url(#SVGID_00000116953330779807457660000013409428757893374880_);}
	
		.st352{clip-path:url(#SVGID_00000164492958430730363370000001040887023551807670_);fill:none;stroke:#999999;stroke-width:0.25;stroke-miterlimit:10;}
	.st353{clip-path:url(#SVGID_00000126298109940267278400000008471440224984553662_);}
	.st354{clip-path:url(#SVGID_00000041982441056254188130000002256399896328173229_);}
	.st355{clip-path:url(#SVGID_00000012443530658678000740000013531688065804904342_);}
	
		.st356{clip-path:url(#SVGID_00000150781058694556716520000002977787694582047162_);fill:none;stroke:#999999;stroke-width:0.25;stroke-miterlimit:10;}
	.st357{clip-path:url(#SVGID_00000000206145192504401540000017648635853199690427_);}
	.st358{clip-path:url(#SVGID_00000034792174207982532050000011534988199681162391_);fill:#F77B0B;}
	.st359{clip-path:url(#SVGID_00000099657739594545786270000001931810036527836086_);}
	
		.st360{clip-path:url(#SVGID_00000119107199866573733640000015790681398119879823_);fill:none;stroke:#999999;stroke-width:0.25;stroke-miterlimit:10;}
	.st361{clip-path:url(#SVGID_00000092449573512690115150000014861112921877160869_);}
	.st362{clip-path:url(#SVGID_00000148642189485278861060000005628657639995311779_);}
	.st363{clip-path:url(#SVGID_00000164507112323290083800000009828770697482273214_);}
	
		.st364{clip-path:url(#SVGID_00000049199160130922821470000017337027033877926290_);fill:none;stroke:#999999;stroke-width:0.25;stroke-miterlimit:10;}
	.st365{clip-path:url(#SVGID_00000003816907513694946650000007951063303902282381_);}
	.st366{clip-path:url(#SVGID_00000075851200347261042810000006285408626178095533_);}
	
		.st367{clip-path:url(#SVGID_00000080898054026887382610000009135981229278661542_);fill:none;stroke:#999999;stroke-width:0.25;stroke-miterlimit:10;}
	.st368{clip-path:url(#SVGID_00000139255690859062188990000001194253250961573529_);}
	.st369{clip-path:url(#SVGID_00000106128198040620588770000002845668437444262581_);}
	.st370{clip-path:url(#SVGID_00000038394838755012003860000005022817342993021845_);}
	
		.st371{clip-path:url(#SVGID_00000112616725228799735540000018259279487097226898_);fill:none;stroke:#999999;stroke-width:0.25;stroke-miterlimit:10;}
	.st372{clip-path:url(#SVGID_00000177468405274102092400000008198266526241483929_);}
	.st373{clip-path:url(#SVGID_00000031178889878011450300000002356361399283891857_);fill:#F77B0B;}
	.st374{clip-path:url(#SVGID_00000039100975988693534470000004650653004639088013_);fill:#F77B0B;}
	.st375{clip-path:url(#SVGID_00000137811652469919916380000010837672246977006995_);fill:#F77B0B;}
	.st376{fill:#003F27;}
	.st377{clip-path:url(#SVGID_00000169553528556398297300000016267142321659448971_);}
	.st378{clip-path:url(#SVGID_00000175294285916887327930000009498697759913623947_);}
	.st379{clip-path:url(#SVGID_00000087402231468504014100000012731084915318285730_);}
	.st380{fill:none;stroke:#999999;stroke-width:0.5;stroke-miterlimit:10;}
	.st381{clip-path:url(#SVGID_00000039128710255151303190000014771144684137459386_);}
</style>
<g>
	<path d="M13.95,59c-1.07-0.25-2.1-0.55-3.01-1.21c-1.39-1.01-2.28-2.33-2.65-4.01c-0.04-0.17-0.08-0.33-0.13-0.55
		c-0.98,0-1.95,0-2.93,0c-1.25,0-1.91-0.67-1.91-1.92c0-1.98,0-3.96,0-5.95c0-1.38,0.59-2.21,1.9-2.69
		c0.53-0.19,1.06-0.39,1.59-0.58c0.58-0.2,1.03-0.02,1.21,0.46c0.17,0.47-0.07,0.91-0.65,1.13c-0.56,0.21-1.16,0.36-1.69,0.64
		c-0.28,0.14-0.63,0.49-0.64,0.75c-0.05,2.13-0.03,4.26-0.03,6.42c1.07,0,2.1,0,3.15,0c0.07-0.28,0.13-0.55,0.2-0.82
		c0.8-2.93,3.49-4.96,6.44-4.88c3.12,0.09,5.71,2.21,6.34,5.22c0.08,0.39,0.19,0.53,0.6,0.52c1.66-0.02,3.32-0.01,4.97-0.01
		c0.15,0,0.29-0.02,0.51-0.03c0-0.25,0-0.47,0-0.69c0-2.1,0-4.19,0-6.29c0-0.21,0-0.42,0.05-0.62c0.1-0.42,0.43-0.7,0.82-0.61
		c0.29,0.07,0.57,0.36,0.77,0.62c0.11,0.15,0.06,0.44,0.06,0.66c0,2.08,0,4.15,0,6.23c0,0.22,0,0.44,0,0.73c0.27,0,0.47,0,0.67,0
		c2.85,0,5.69-0.01,8.54,0.01c0.44,0,0.63-0.07,0.74-0.57c0.65-3.03,3.36-5.19,6.43-5.18c3.12,0.01,5.77,2.19,6.43,5.26
		c0.03,0.15,0.07,0.29,0.12,0.45c1.02,0,2.04,0,3.1,0c0-0.93,0-1.86,0-2.87c-0.4,0-0.81,0.01-1.21,0c-0.6-0.02-0.99-0.38-0.97-0.87
		c0.02-0.48,0.38-0.79,0.97-0.82c0.39-0.01,0.79,0,1.25,0c0-0.6,0.05-1.16-0.01-1.71c-0.06-0.51-0.46-0.73-0.94-0.85
		c-3.14-0.78-6.27-1.6-9.42-2.35c-0.87-0.21-1.78-0.32-2.67-0.32c-3.94-0.03-7.88-0.01-11.81-0.02c-0.96,0-1.2-0.24-1.2-1.21
		c0-1.42-0.01-2.83,0-4.25c0-0.84,0.29-1.11,1.13-1.11c2.81,0,5.62,0,8.42,0c0.21,0,0.41,0,0.75,0c-0.3-0.54-0.53-1.03-0.84-1.45
		c-0.12-0.16-0.43-0.23-0.65-0.23c-6.65-0.01-13.3-0.01-19.95-0.01c-0.78,0-1.29,0.41-1.58,1.14c-0.79,1.96-1.6,3.9-2.41,5.86
		c-0.41,0.99-1.78,1.96-2.84,1.89c-0.27-0.02-0.66-0.29-0.75-0.53c-0.09-0.24,0.08-0.62,0.2-0.91c0.04-0.11,0.24-0.19,0.38-0.21
		c1.03-0.18,1.5-0.85,1.84-1.79c0.57-1.59,1.27-3.14,1.91-4.71c0.73-1.77,1.68-2.41,3.59-2.43c0.13,0,0.26,0,0.44,0
		c0-1.05,0-2.07,0-3.18c-0.19,0-0.39,0-0.59,0c-2.07,0-4.15,0.01-6.22,0c-2.05-0.01-3.41-1.35-3.41-3.41
		c-0.01-6.91-0.01-13.82,0-20.73c0-1.82,1-2.88,2.67-3.4C22.24,1,33.47,1,44.7,1c0.07,0.03,0.13,0.08,0.2,0.1
		c1.55,0.47,2.46,1.58,2.46,3.19c0.02,5.13,0.01,10.27,0.01,15.4c0,0.06,0,0.11-0.01,0.17c-0.06,0.55-0.38,0.86-0.87,0.85
		c-0.48-0.01-0.81-0.34-0.81-0.89c-0.02-1.23-0.01-2.45-0.01-3.68c0-3.81,0-7.63,0-11.44c0-1.47-0.53-2-2.01-2
		c-10.55,0-21.1,0-31.65,0c-1.44,0-1.98,0.54-1.98,1.98c0,6.72,0,13.44,0,20.16c0,1.48,0.52,2,2.01,2c10.55,0,21.1,0,31.65,0
		c1.45,0,1.97-0.53,1.98-1.98c0-0.34-0.01-0.68,0.01-1.02c0.03-0.5,0.37-0.86,0.81-0.84c0.48,0.01,0.83,0.27,0.84,0.75
		c0.02,0.81,0.05,1.64-0.12,2.42c-0.31,1.4-1.57,2.35-3.01,2.36c-2.15,0.02-4.3,0.01-6.44,0.01c-0.2,0-0.4,0-0.64,0
		c0,1.08,0,2.09,0,3.18c0.21,0,0.41,0,0.61,0c1.06-0.01,1.83,0.45,2.35,1.38c1.2,2.18,2.42,4.35,3.62,6.53
		c0.17,0.32,0.38,0.5,0.75,0.59c3.29,0.81,6.57,1.64,9.85,2.47c1.68,0.42,2.39,1.34,2.39,3.07c0,1.85,0,3.7,0,5.55
		c0,1.25-0.66,1.91-1.92,1.92c-0.96,0-1.92,0-2.92,0c-0.07,0.29-0.12,0.56-0.2,0.83c-0.81,2.69-2.57,4.32-5.33,4.84
		c-0.09,0.02-0.18,0.06-0.26,0.09c-0.53,0-1.06,0-1.58,0c-0.09-0.03-0.17-0.08-0.26-0.1c-2.8-0.52-4.82-2.47-5.38-5.26
		c-0.08-0.4-0.28-0.41-0.59-0.41c-5.5,0-11,0.01-16.5,0c-0.35,0-0.51,0.07-0.59,0.47c-0.57,2.55-2.13,4.23-4.6,5.04
		c-0.34,0.11-0.68,0.18-1.03,0.27C15,59,14.47,59,13.95,59z M20.34,31.68c5.04,0,10.02,0,15.01,0c0-1.06,0-2.08,0-3.11
		c-5.02,0-10,0-15.01,0C20.34,29.62,20.34,30.63,20.34,31.68z M50.17,52.47c0.05-2.7-2.08-4.91-4.81-4.97
		c-2.62-0.07-4.9,2.09-4.96,4.71c-0.07,2.76,2.05,5.03,4.75,5.09C47.89,57.36,50.11,55.22,50.17,52.47z M19.6,52.43
		c0.01-2.71-2.14-4.9-4.85-4.93c-2.68-0.03-4.89,2.16-4.92,4.87c-0.02,2.7,2.16,4.92,4.85,4.94C17.37,57.32,19.59,55.12,19.6,52.43z
		 M30.62,39.96c3.79,0,7.5,0,11.3,0c-0.59-1.04-1.14-2.02-1.7-2.98c-0.06-0.09-0.25-0.15-0.38-0.15c-2.93-0.01-5.87,0-8.8-0.01
		c-0.27,0-0.42,0.06-0.42,0.37C30.63,38.09,30.62,38.99,30.62,39.96z"/>
	<path d="M30.61,20.57c0,0.89,0,1.61,0,2.34c0,0.26,0.01,0.53,0,0.79c-0.03,0.57-0.36,0.94-0.84,0.94c-0.48,0-0.84-0.37-0.84-0.94
		c-0.01-1.92-0.01-3.85-0.01-5.77c0-0.43,0.16-0.79,0.6-0.92c0.46-0.14,0.79,0.08,1.05,0.46c0.71,1.04,1.43,2.08,2.15,3.12
		c0.08,0.12,0.17,0.23,0.34,0.46c0-0.95,0-1.77,0-2.58c0-0.21-0.01-0.42,0-0.62c0.03-0.53,0.36-0.87,0.84-0.88
		c0.48,0,0.84,0.33,0.85,0.86c0.02,0.9,0.02,1.81,0.03,2.72c0.01,0.98,0.02,1.96,0.03,2.94c0,0.5-0.17,0.9-0.68,1.05
		c-0.48,0.14-0.83-0.1-1.1-0.5c-0.66-0.96-1.32-1.92-1.99-2.88C30.93,21,30.82,20.86,30.61,20.57z"/>
	<path d="M38.37,17.06c0.3,0,0.6-0.02,0.9,0c1.11,0.07,1.94,0.61,2.43,1.59c0.7,1.4,0.71,2.84-0.01,4.24
		c-0.49,0.95-1.29,1.52-2.36,1.63c-0.65,0.06-1.32,0.06-1.97,0.03c-0.49-0.02-0.81-0.32-0.81-0.84c-0.01-1.94-0.02-3.88-0.01-5.82
		c0-0.52,0.31-0.8,0.81-0.83c0.34-0.02,0.68,0,1.02,0C38.37,17.05,38.37,17.06,38.37,17.06z M38.29,18.77c0,1.38,0,2.72,0,4.06
		c1.6,0.07,2.26-0.59,2.22-2.15C40.48,19.2,39.83,18.63,38.29,18.77z"/>
	<path d="M21.43,12.54c0.76,0,1.35-0.01,1.95,0c0.57,0.01,0.94,0.35,0.95,0.83c0.01,0.48-0.37,0.85-0.93,0.86
		c-1.17,0.02-2.34,0.04-3.5-0.02c-0.32-0.02-0.76-0.24-0.9-0.51c-0.12-0.23-0.01-0.71,0.17-0.97c0.8-1.14,1.67-2.23,2.49-3.36
		c0.3-0.41,0.58-0.84,0.77-1.31c0.24-0.55-0.06-1.12-0.62-1.32c-0.52-0.2-1.07,0.05-1.31,0.57c-0.04,0.09-0.06,0.18-0.09,0.27
		c-0.21,0.51-0.61,0.71-1.07,0.56C18.91,8,18.7,7.58,18.82,7.05c0.33-1.55,2.12-2.48,3.64-1.88c1.49,0.58,2.19,2.24,1.48,3.74
		c-0.35,0.74-0.88,1.4-1.35,2.08C22.25,11.47,21.87,11.94,21.43,12.54z"/>
	<path d="M15.19,19.81c0.84,0,1.61,0,2.45,0c0-0.6,0-1.18,0-1.76c0.01-0.73,0.29-1.09,0.85-1.08c0.54,0.01,0.84,0.36,0.84,1.05
		c0.01,1.87,0.01,3.73,0,5.6c-0.01,0.81-0.67,1.29-1.24,0.89c-0.23-0.16-0.4-0.54-0.43-0.84c-0.06-0.67-0.02-1.35-0.02-2.08
		c-0.81,0-1.59,0-2.46,0c0,0.71,0.04,1.44-0.02,2.16c-0.02,0.27-0.23,0.63-0.45,0.76c-0.2,0.12-0.62,0.09-0.82-0.05
		c-0.21-0.14-0.38-0.49-0.38-0.75c-0.03-1.94-0.02-3.88-0.01-5.83c0-0.57,0.35-0.92,0.85-0.92c0.5,0,0.83,0.36,0.84,0.93
		C15.2,18.51,15.19,19.13,15.19,19.81z"/>
	<path d="M24.21,16.74c0.36,0.35,0.75,0.56,0.87,0.88c0.77,1.94,1.49,3.9,2.22,5.86c0.18,0.5-0.04,0.93-0.5,1.1
		c-0.43,0.16-0.91-0.01-1.05-0.49c-0.16-0.51-0.45-0.61-0.91-0.57c-0.37,0.04-0.75,0.03-1.13,0c-0.55-0.04-0.99-0.02-1.2,0.66
		c-0.14,0.44-0.6,0.56-1.04,0.37c-0.44-0.19-0.63-0.57-0.47-1.02c0.75-2.01,1.5-4.02,2.31-6.01C23.43,17.24,23.83,17.07,24.21,16.74
		z M24.88,21.82c-0.24-0.63-0.45-1.19-0.71-1.87c-0.26,0.7-0.47,1.26-0.69,1.87C23.97,21.82,24.36,21.82,24.88,21.82z"/>
	<path d="M28.79,7.12c0-0.4-0.01-0.81,0-1.21c0.02-0.62,0.33-0.99,0.85-0.99c0.52,0,0.83,0.34,0.84,0.98
		c0.03,1.26,0.04,2.53,0.06,3.79c0.01,0.51-0.13,0.96-0.67,1.12c-0.51,0.16-0.85-0.13-1.12-0.54c-0.36-0.54-0.74-1.07-1.23-1.59
		c0,0.42,0.01,0.84,0,1.26c-0.01,0.58-0.33,0.93-0.83,0.94c-0.5,0.01-0.85-0.34-0.86-0.91c-0.01-1.38-0.01-2.75,0-4.13
		c0-0.42,0.18-0.74,0.58-0.87c0.43-0.13,0.77,0.02,1.02,0.39c0.41,0.6,0.83,1.19,1.24,1.79C28.71,7.14,28.75,7.13,28.79,7.12z"/>
	<path d="M32.15,7.89c0-0.62,0-1.24,0-1.86c0.01-0.75,0.31-1.04,1.07-1.05c0.26,0,0.53,0,0.79,0c1.64,0.01,2.67,1.11,2.68,2.89
		c0.02,1.79-1.02,2.95-2.66,2.98c-1.82,0.03-1.88-0.02-1.88-1.83C32.15,8.64,32.15,8.26,32.15,7.89
		C32.15,7.89,32.15,7.89,32.15,7.89z M33.87,9.11C34.7,9.15,35.01,8.75,35,7.8C35,7.1,34.57,6.48,33.87,6.72
		C33.87,7.49,33.87,8.28,33.87,9.11z"/>
	<path d="M31.26,14.23c-1.47,0-2.94,0.01-4.4,0c-0.6,0-0.96-0.29-1.02-0.77c-0.06-0.5,0.33-0.92,0.9-0.92
		c1.13-0.01,2.26-0.01,3.39-0.01c1.86,0,3.73,0,5.59,0c0.67,0,1.04,0.38,0.98,0.95c-0.06,0.48-0.41,0.74-1.03,0.74
		C34.19,14.24,32.72,14.23,31.26,14.23z"/>
	<path d="M21.45,41.69c-1.54,0-3.09,0-4.63,0c-0.96,0-1.3-0.49-0.96-1.39c0.56-1.48,1.14-2.95,1.7-4.43
		c0.2-0.53,0.54-0.76,1.11-0.76c2.5,0.01,5,0,7.51,0.01c0.74,0,1.05,0.29,1.05,1.02c0.01,1.51,0.01,3.02,0,4.52
		c-0.01,0.74-0.29,1.02-1.04,1.02C24.61,41.69,23.03,41.69,21.45,41.69z M25.5,36.91c-0.05-0.04-0.07-0.05-0.08-0.05
		c-2.05-0.01-4.09-0.03-6.14-0.03c-0.11,0-0.28,0.08-0.31,0.17c-0.39,0.97-0.76,1.95-1.14,2.95c2.61,0,5.14,0,7.68,0
		C25.5,38.9,25.5,37.89,25.5,36.91z"/>
	<path d="M23.16,44.96c-0.53,0-1.05,0.01-1.58,0c-0.53-0.02-0.86-0.35-0.86-0.84c0-0.48,0.33-0.84,0.86-0.85
		c1.05-0.02,2.1-0.02,3.15,0c0.53,0.01,0.86,0.37,0.87,0.84c0,0.5-0.35,0.82-0.92,0.84c-0.04,0-0.08,0-0.11,0
		C24.1,44.97,23.63,44.97,23.16,44.96C23.16,44.97,23.16,44.97,23.16,44.96z"/>
	<path d="M32.97,44.97c-0.51,0-1.01,0.01-1.52,0c-0.54-0.02-0.88-0.33-0.9-0.81c-0.02-0.5,0.32-0.87,0.89-0.88
		c1.03-0.02,2.06-0.02,3.09,0c0.57,0.01,0.91,0.37,0.9,0.87c-0.01,0.5-0.36,0.81-0.94,0.82C33.99,44.97,33.48,44.97,32.97,44.97z"/>
	<path d="M48.31,52.41c-0.01,1.66-1.37,3.02-3.03,3.02c-1.66,0-3.02-1.35-3.03-3.02c-0.01-1.68,1.37-3.05,3.06-3.04
		C46.98,49.38,48.32,50.74,48.31,52.41z M45.26,53.72c0.74,0.01,1.34-0.57,1.36-1.3c0.02-0.73-0.57-1.34-1.3-1.36
		c-0.73-0.01-1.34,0.57-1.36,1.3C43.94,53.1,44.52,53.71,45.26,53.72z"/>
	<path d="M14.74,49.37c1.66,0.01,3.02,1.39,3.01,3.04c-0.01,1.67-1.37,3.02-3.03,3.02c-1.68,0-3.05-1.39-3.03-3.08
		C11.71,50.69,13.07,49.36,14.74,49.37z M14.71,53.72c0.73,0,1.33-0.59,1.34-1.32c0-0.73-0.6-1.33-1.33-1.33
		c-0.73,0-1.33,0.6-1.33,1.33C13.38,53.13,13.98,53.72,14.71,53.72z"/>
</g>
</svg>
